<svg width="512" height="432" xmlns="http://www.w3.org/2000/svg" xml:space="preserve" enable-background="new 0 0 121.702 122.881" version="1.1">

 <g>
  <title>Layer 1</title>
  <path stroke="null" id="svg_2" d="m232.65618,2.04477c47.77834,0 91.03249,20.89721 122.34366,54.68933c31.31117,33.78864 50.67615,80.46522 50.67615,132.02397c0,37.72014 -10.36822,72.82856 -28.19393,102.19121l74.88156,88.07054l-51.63456,50.93542l-72.2161,-85.74785c-27.43882,19.74457 -60.4022,31.2605 -95.85679,31.2605c-47.77834,0 -91.03249,-20.90069 -122.34366,-54.68933c-31.31117,-33.79212 -50.67615,-80.4687 -50.67615,-132.02397c0,-51.55875 19.36498,-98.23533 50.67615,-132.02397c31.31117,-33.78864 74.56855,-54.68584 122.34366,-54.68584l0,0zm108.69363,69.41592c-27.81315,-30.01732 -66.243,-48.58139 -108.69363,-48.58139s-80.87725,18.56756 -108.69363,48.58139c-27.81638,30.01732 -45.02252,71.48788 -45.02252,117.29389s17.20614,87.27657 45.02252,117.29041c27.81638,30.0208 66.243,48.58139 108.69363,48.58139s80.88048,-18.56059 108.69363,-48.58139c27.81638,-30.01384 45.01929,-71.48092 45.01929,-117.29041s-17.20291,-87.27657 -45.01929,-117.29389l0,0z"/>

  <g stroke="null">
   <g stroke="null">
    <path stroke="null" clip-rule="evenodd" fill-rule="evenodd" d="m164.32121,311.14301c12.64259,0 22.92267,-9.19461 22.92267,-20.5176c0,-4.04393 -1.3196,-7.81116 -3.59697,-11.00373l0.61723,0c-10.06725,-11.00373 -9.00306,-20.00679 1.66014,-23.15679l35.26729,0c3.98007,0 7.2365,-3.25642 7.2365,-7.2365l0,-31.3085c2.46892,-21.36895 11.59968,-15.02638 22.34801,-8.40711c25.96626,15.98415 43.22743,-21.87977 22.24159,-34.84161c-16.47368,-10.17367 -23.60375,7.32163 -35.67168,5.51251c-4.66116,-0.70237 -7.8963,-5.74663 -8.91792,-13.40881l0,-30.94667c0,-3.98007 -3.25642,-7.2365 -7.2365,-7.2365l-30.88282,0c-14.62198,-1.85169 -17.38888,-11.68482 -6.06589,-24.05071l-0.61723,0c2.27737,-3.19257 3.59697,-6.95981 3.59697,-11.00373c0.02128,-11.32299 -10.23752,-20.5176 -22.90139,-20.5176c-12.64259,0 -22.90139,9.19461 -22.90139,20.5176c0,4.04393 1.3196,7.81116 3.59697,11.00373l-0.14899,0c11.32299,12.3659 8.57738,22.22031 -6.06589,24.05071l-31.01052,0c-3.98007,0 -7.2365,3.25642 -7.2365,7.2365l0,32.26627c2.31994,13.2811 11.89765,15.45205 23.81659,4.53345l0,0.14899c3.19257,-2.27737 6.95981,-3.59697 11.00373,-3.59697c11.32299,0 20.5176,10.2588 20.5176,22.90139c0,12.64259 -9.19461,22.90139 -20.5176,22.90139c-4.04393,0 -7.81116,-1.3196 -11.00373,-3.59697l0,0.61723c-11.91894,-10.9186 -21.49666,-8.72637 -23.81659,4.55474l0,32.69194c0,3.98007 3.25642,7.2365 7.2365,7.2365l35.39499,0c10.66319,3.15001 11.74867,12.15306 1.66014,23.15679l0.14899,0c-2.25608,3.19257 -3.59697,6.95981 -3.59697,11.00373c0.02128,11.32299 10.28008,20.5176 22.92267,20.49632l0,0l0,0zm134.00292,1.17061l-0.04257,0c-12.64259,0 -22.92267,-9.19461 -22.92267,-20.5176c0,-4.04393 1.3196,-7.81116 3.59697,-11.00373l-0.14899,0c10.06725,-11.00373 9.00306,-20.00679 -1.66014,-23.15679l-35.39499,0c-3.98007,0 -7.2365,-3.25642 -7.2365,-7.2365l0,-32.62809c1.70271,-4.93785 3.87365,-6.68312 6.42771,-6.74697c1.17061,-0.02128 2.40507,0.29797 3.72467,0.85135c3.70338,1.53243 8.04528,4.74629 12.77029,6.5767c18.21895,7.02366 33.86255,-10.70576 32.81965,-28.92471c-0.23412,-4.06521 -1.87298,-8.06657 -4.29933,-11.76995c-9.30103,-14.21759 -23.07166,-15.55847 -36.35276,-7.44934c-6.76825,4.15034 -12.15306,7.27907 -15.23921,-2.49021l0.17027,-30.84025c0.02128,-3.98007 3.25642,-7.2365 7.2365,-7.2365l30.98924,0c14.62198,-1.85169 17.38888,-11.68482 6.06589,-24.05071l0.14899,0c-2.27737,-3.19257 -3.59697,-6.95981 -3.59697,-11.00373c0,-11.32299 10.2588,-20.5176 22.92267,-20.5176l0.04257,0c12.64259,0 22.92267,9.19461 22.92267,20.5176c0,4.04393 -1.3196,7.81116 -3.59697,11.00373l0.14899,0c-11.32299,12.3659 -8.57738,22.22031 6.06589,24.05071l30.98924,0c3.98007,0 7.2365,3.25642 7.2365,7.2365l0,32.26627c-2.31994,13.2811 -11.89765,15.45205 -23.81659,4.53345l0,0.14899c-3.19257,-2.27737 -6.95981,-3.59697 -11.00373,-3.59697c-11.32299,0 -20.5176,10.2588 -20.5176,22.90139c0,12.64259 9.19461,22.92267 20.5176,22.92267c4.04393,0 7.81116,-1.3196 11.00373,-3.59697l0,0.61723c11.94022,-10.9186 21.49666,-8.72637 23.81659,4.55474l0,32.62809c0,3.98007 -3.25642,7.2365 -7.2365,7.2365l-35.39499,0c-10.66319,3.15001 -11.72738,12.15306 -1.66014,23.15679l-0.17027,0c2.27737,3.19257 3.59697,6.95981 3.59697,11.00373c-0.02128,11.36556 -10.28008,20.56017 -22.92267,20.56017l0,0l0,0z" class="st0"/>
   </g>
  </g>
 </g>
</svg>