<svg width="512" height="432" xmlns="http://www.w3.org/2000/svg" version="1.1" enable-background="new 0 0 121.702 122.881" xml:space="preserve">
 <g>
  <title>Layer 1</title>
  <g id="svg_6">
   <path d="m232.65619,2.04477c47.77834,0 91.03249,20.89721 122.34366,54.68933c31.31117,33.78864 50.67615,80.46522 50.67615,132.02397c0,37.72014 -10.36822,72.82856 -28.19393,102.19121l74.88156,88.07054l-51.63456,50.93542l-72.2161,-85.74785c-27.43882,19.74457 -60.4022,31.2605 -95.85679,31.2605c-47.77834,0 -91.03249,-20.90069 -122.34366,-54.68933c-31.31117,-33.79212 -50.67615,-80.4687 -50.67615,-132.02397c0,-51.55875 19.36498,-98.23533 50.67615,-132.02397c31.31117,-33.78864 74.56855,-54.68584 122.34366,-54.68584l0,0l0.00001,-0.00001zm108.69363,69.41592c-27.81315,-30.01732 -66.243,-48.58139 -108.69363,-48.58139s-80.87725,18.56756 -108.69363,48.58139c-27.81638,30.01732 -45.02252,71.48788 -45.02252,117.29389s17.20614,87.27657 45.02252,117.29041c27.81638,30.0208 66.243,48.58139 108.69363,48.58139s80.88048,-18.56059 108.69363,-48.58139c27.81638,-30.01384 45.01929,-71.48092 45.01929,-117.29041s-17.20291,-87.27657 -45.01929,-117.29389l0,0z" id="svg_2" stroke="null"/>
   <g transform="rotate(-90 233.295 189.5)" stroke="null">

    <title stroke="null">tech</title>
    <path stroke="null" fill-rule="evenodd" d="m211.92115,155.98783a32.68001,33.47264 0 1 1 -32.75614,33.47264a32.68001,33.47264 0 0 1 32.75614,-33.47264zm78.22646,108.0599l0,-16.9995l-45.39419,0a83.74609,85.77729 0 0 0 10.73473,-12.02832l40.50265,0a5.88126,6.02391 0 0 1 5.86223,5.98492l0,23.0429a17.12988,17.54536 0 1 1 -11.70542,0zm-4.09214,-123.38284l-25.98032,0a85.23068,87.29789 0 0 0 -8.58397,-12.00882l28.7211,0l0,-13.64639a17.12988,17.54536 0 1 1 11.70542,-0.11697l0,19.78726a5.84319,5.98492 0 0 1 -5.86223,5.98492zm64.17996,-30.62639a17.12988,17.54536 0 1 0 -24.077,16.08324l0,35.09071l-57.30897,0a82.6041,84.6076 0 0 1 2.41722,12.00882l60.73495,0a5.88126,6.02391 0 0 0 5.84319,-6.00441l0,-40.27634a17.12988,17.54536 0 0 0 12.39061,-16.90203zm-0.2855,97.33773a17.12988,17.54536 0 0 0 -33.28907,-6.00441l-46.36488,0a80.09171,82.03429 0 0 1 -3.31178,11.98933l49.67666,0a17.12988,17.54536 0 0 0 33.28907,-5.98492zm-139.26594,78.70067l-6.77582,0a11.66735,11.95034 0 0 1 -11.64832,-11.91135l0,-12.20377a72.53553,74.29483 0 0 1 -19.0332,-7.36905l-7.95588,8.14884a11.66735,11.95034 0 0 1 -16.46372,0l-9.61177,-9.92287a11.68639,11.96983 0 0 1 0,-16.86304l7.25165,-7.42753a72.32617,74.08039 0 0 1 -8.50784,-20.13817l-9.93533,0a11.66735,11.95034 0 0 1 -11.64832,-11.91135l0,-14.03628a11.66735,11.95034 0 0 1 11.64832,-11.96983l9.745,0a72.32617,74.08039 0 0 1 8.45074,-20.35261l-7.00422,-7.1741a11.68639,11.96983 0 0 1 0,-16.84354l9.6879,-9.92287a11.66735,11.95034 0 0 1 16.46372,0l7.61328,7.79794a72.32617,74.08039 0 0 1 19.28063,-7.5445l0,-11.6969a11.66735,11.95034 0 0 1 11.66735,-11.89185l13.68487,0a11.66735,11.95034 0 0 1 11.57219,11.346l0,39.92543a46.70748,47.84034 0 0 0 -16.04499,-2.88524c-0.81843,0 -1.63686,0 -2.43625,0s-1.61782,0 -2.41722,0a46.84071,47.9768 0 1 0 0,95.93411c0.79939,0 1.61782,0 2.41722,0s1.61782,0 2.43625,0a46.70748,47.84034 0 0 0 16.04499,-2.88524l0,40.45179a11.66735,11.95034 0 0 1 -11.62929,11.346l-6.85195,0z" class="cls-1"/>
   </g>
  </g>
 </g>

</svg>