<svg width="512" height="432" xmlns="http://www.w3.org/2000/svg" xml:space="preserve" enable-background="new 0 0 121.702 122.881" version="1.1">

 <g>
  <title>Layer 1</title>
  <g stroke="null" id="svg_3">
   <path stroke="null" id="svg_2" d="m240.4069,2.04477c47.77834,0 91.03249,20.89721 122.34366,54.68933c31.31117,33.78864 50.67615,80.46522 50.67615,132.02397c0,37.72014 -10.36822,72.82856 -28.19393,102.19121l74.88156,88.07054l-51.63456,50.93542l-72.2161,-85.74785c-27.43882,19.74457 -60.4022,31.2605 -95.85679,31.2605c-47.77834,0 -91.03249,-20.90069 -122.34366,-54.68933c-31.31117,-33.79212 -50.67615,-80.4687 -50.67615,-132.02397c0,-51.55875 19.36498,-98.23533 50.67615,-132.02397c31.31117,-33.78864 74.56855,-54.68584 122.34366,-54.68584l0,0zm108.69363,69.41592c-27.81315,-30.01732 -66.243,-48.58139 -108.69363,-48.58139s-80.87725,18.56756 -108.69363,48.58139c-27.81638,30.01732 -45.02252,71.48788 -45.02252,117.29389s17.20614,87.27657 45.02252,117.29041c27.81638,30.0208 66.243,48.58139 108.69363,48.58139s80.88048,-18.56059 108.69363,-48.58139c27.81638,-30.01384 45.01929,-71.48092 45.01929,-117.29041s-17.20291,-87.27657 -45.01929,-117.29389l0,0z"/>
   <g stroke="null">
    <path stroke="null" d="m114.68414,200.31806c-2.95199,0 -5.34268,-2.17718 -5.34268,-4.86553c0,-2.68362 2.39069,-4.86553 5.34268,-4.86553l44.56566,0l8.26868,-15.85558c1.25771,-2.4233 4.43318,-3.46456 7.09413,-2.31917a5.29591,4.82294 0 0 1 2.67134,2.57949l9.97855,19.74612l19.68685,-113.71056c0.44696,-2.64575 3.16507,-4.4585 6.07029,-4.05146c2.47385,0.35024 4.28246,2.20085 4.49035,4.3733l0.01559,0l15.00421,156.19879l17.27017,-96.69539c0.47294,-2.64575 3.21185,-4.43956 6.11706,-4.00886c2.28675,0.33604 3.99662,1.95947 4.3864,3.92367l15.82016,76.75996l20.03506,-43.18872c1.13818,-2.47063 4.26167,-3.62549 6.96939,-2.58896c1.2889,0.49697 2.25037,1.40097 2.78568,2.47536l0.01039,-0.00473l8.08678,16.36675l56.08257,0c2.95199,0 5.34268,2.18192 5.34268,4.86553c0,2.68835 -2.39069,4.86553 -5.34268,4.86553l-59.5231,0l0,-0.00947c-2.03209,0 -3.97583,-1.06493 -4.86454,-2.85874l-4.49555,-9.10158l-22.05156,47.54309c-0.62366,1.56189 -2.11005,2.79248 -4.033,3.12379c-2.88962,0.49223 -5.6753,-1.24478 -6.21581,-3.87634l-13.47624,-65.3818l-19.18272,107.392c-0.22348,2.30971 -2.23998,4.20765 -4.85935,4.41117c-2.9364,0.23192 -5.52458,-1.75121 -5.77924,-4.42536l-14.93145,-155.44151l-15.62787,90.25377c-0.22868,1.59976 -1.33047,3.05752 -3.06633,3.77694c-2.67134,1.11226 -5.83122,0.0426 -7.05255,-2.39017l-12.66548,-25.08022l-4.67745,8.96905a5.34008,4.86317 0 0 1 -4.97888,3.09539l-47.92823,0z" fill-rule="nonzero"/>
   </g>
  </g>
 </g>
</svg>