<svg width="122.88" height="92.5" xmlns="http://www.w3.org/2000/svg" data-name="Layer 1">

 <title>information-technology</title>
 <g>
  <title>Layer 1</title>
  <path id="svg_1" fill-rule="evenodd" d="m2.6,86.05l11.47,0a2.14,2.14 0 0 1 -0.57,-1.5l0,-47a2.15,2.15 0 0 1 2.15,-2.15l90.1,0a2.16,2.16 0 0 1 2.15,2.15l0,47a2.19,2.19 0 0 1 -0.61,1.5l12,0a3.1,3.1 0 0 1 0,6.2l-116.69,0a3.1,3.1 0 0 1 0,-6.2zm85,-64.3l-6.1,0l0,9.56l-4.27,0l0,-11.7a2.13,2.13 0 0 1 2.14,-2.14l8.26,0a6.28,6.28 0 1 1 -0.06,4.28l0.03,0zm-44.1,1.5l0,8.06l-4.29,0l0,-5.92l-4.91,0a6.28,6.28 0 1 1 0,-4.29l7.1,0a2.12,2.12 0 0 1 1.51,0.63a2.15,2.15 0 0 1 0.59,1.52zm-10.94,-23.5a6.28,6.28 0 1 0 5.75,8.81l12.56,0l0,22.75l4.28,0l0,-24.88a2.13,2.13 0 0 0 -2.14,-2.15l-14.42,0a6.27,6.27 0 0 0 -6,-4.53l-0.03,0zm34.79,0.1a6.28,6.28 0 0 0 -2.14,12.19l0,19.27l4.29,0l0,-19.27a6.28,6.28 0 0 0 -2.15,-12.19zm-50.21,38.9l87.36,0l0,45.2l-87.36,0l0,-45.2zm40.26,48.83l7.1,0a1.21,1.21 0 0 1 1.18,1.17l0,0a1.21,1.21 0 0 1 -1.18,1.24l-7.1,0a1.21,1.21 0 0 1 -1.2,-1.24l0,0a1.2,1.2 0 0 1 1.2,-1.2l0,0.03z" class="cls-1"/>
  <g stroke="null">
   <title stroke="null">Layer 1</title>
   <g stroke="null">
    <title stroke="null"/>
    <g stroke="null" id="svg_2">
     <path stroke="null" d="m82.2386,59.05734l0,-10.40728c0,-2.9891 -6.58826,-4.36364 -12.71418,-4.36364a34.67504,32.72731 0 0 0 -5.77918,0.43637l0,-0.43637c0,-2.9891 -6.58826,-4.36364 -12.71418,-4.36364s-12.71418,1.37455 -12.71418,4.36364l0,32.72731c0,2.9891 6.58826,4.36364 12.71418,4.36364a33.98154,32.07276 0 0 0 6.54203,-0.58909a17.31441,16.34184 0 0 0 24.66552,-21.73093zm-7.18929,-6.43637a16.96766,16.01456 0 0 0 4.87762,-1.33091l0,4.82182a17.45311,16.47275 0 0 0 -4.87762,-3.49091zm-24.01825,-3.97091a25.26655,23.8473 0 0 0 10.40251,-1.72364l0,3.90546c-0.18493,0.61091 -3.65244,2.18182 -10.40251,2.18182s-10.21758,-1.59273 -10.40251,-2.18182l0,-3.90546a25.26655,23.8473 0 0 0 10.40251,1.72364zm-0.1387,13.09092a15.97364,15.07638 0 0 0 -1.01714,4.36364c-6.01034,-0.17455 -9.1311,-1.59273 -9.24668,-2.18182l0,-3.90546a25.42837,24.00003 0 0 0 10.26381,1.72364l0,0zm-10.26381,8.72728l0,-3.90546a23.62527,22.29821 0 0 0 9.24668,1.72364a17.31441,16.34184 0 0 0 0.9709,4.36364c-6.61137,0 -10.03265,-1.59273 -10.21758,-2.18182l0,0zm11.28095,-10.9091l-0.87843,0c-6.75008,0 -10.21758,-1.59273 -10.40251,-2.18182l0,-3.90546a25.26655,23.8473 0 0 0 10.40251,1.72364a35.83088,33.81822 0 0 0 4.76204,-0.28364a17.40687,16.42911 0 0 0 -3.88361,4.64728l0,0zm17.61492,-13.09092c6.77319,0 10.2407,1.59273 10.40251,2.18182s-3.62932,2.18182 -10.40251,2.18182a33.72726,31.83276 0 0 1 -5.77918,-0.45818l0,-3.44728a33.72726,31.83276 0 0 1 5.77918,-0.45818zm-18.49336,-4.36364c6.70384,0 10.17135,1.57091 10.40251,2.18182c-0.23117,0.58909 -3.46751,2.05091 -9.6859,2.18182l-0.71662,0c-6.75008,0 -10.21758,-1.59273 -10.40251,-2.18182l0,0c0.18493,-0.58909 3.65244,-2.18182 10.40251,-2.18182zm0,37.09095c-6.75008,0 -10.21758,-1.59273 -10.40251,-2.18182l0,-3.90546a25.26655,23.8473 0 0 0 10.40251,1.72364l0.85532,0a17.33752,16.36366 0 0 0 3.28257,4.12364a33.91219,32.00731 0 0 1 -4.13789,0.24l0,0zm16.18169,2.18182a15.02585,14.18183 0 1 1 15.02585,-14.18183a15.04897,14.20365 0 0 1 -15.02585,14.18183z"/>
     <path stroke="null" d="m68.36858,66.10462l0,-5.01819a2.98205,2.81455 0 0 1 2.31167,1.92a1.15584,1.09091 0 0 0 2.31167,-0.52364a5.50177,5.19273 0 0 0 -4.62334,-3.53455l0,-0.48a1.15584,1.09091 0 0 0 -2.31167,0l0,0.45818a5.24749,4.95273 0 0 0 -4.62334,4.62546a5.33996,5.04 0 0 0 0.11558,1.00364a5.52489,5.21455 0 0 0 4.50776,3.73091l0,5.04a2.98205,2.81455 0 0 1 -2.31167,-1.92a1.15584,1.09091 0 1 0 -2.31167,0.52364a5.45554,5.14909 0 0 0 4.62334,3.51273l0,0.48a1.15584,1.09091 0 0 0 2.31167,0l0,-0.48a5.45554,5.14909 0 0 0 4.62334,-3.64364a5.27061,4.97455 0 0 0 0.11558,-0.96a5.27061,4.97455 0 0 0 -4.73893,-4.73455l0,0zm-4.62334,-2.18182a1.8031,1.70182 0 0 1 0,-0.48a2.84335,2.68364 0 0 1 2.31167,-2.37818l0,4.77819a3.00517,2.83637 0 0 1 -2.31167,-1.81091l0,-0.10909l0,0zm6.93501,7.37455a2.98205,2.81455 0 0 1 -2.31167,1.92l0,-4.77819a2.84335,2.68364 0 0 1 2.31167,2.4a1.89557,1.78909 0 0 1 0,0.45818l0,0z"/>
    </g>
   </g>
  </g>
 </g>
</svg>