<svg width="512" height="432" xmlns="http://www.w3.org/2000/svg" xml:space="preserve" enable-background="new 0 0 121.702 122.881" version="1.1">

 <g>
  <title>Layer 1</title>
  <path stroke="null" id="svg_2" d="m232.65618,2.04477c47.77834,0 91.03249,20.89721 122.34366,54.68933c31.31117,33.78864 50.67615,80.46522 50.67615,132.02397c0,37.72014 -10.36822,72.82856 -28.19393,102.19121l74.88156,88.07054l-51.63456,50.93542l-72.2161,-85.74785c-27.43882,19.74457 -60.4022,31.2605 -95.85679,31.2605c-47.77834,0 -91.03249,-20.90069 -122.34366,-54.68933c-31.31117,-33.79212 -50.67615,-80.4687 -50.67615,-132.02397c0,-51.55875 19.36498,-98.23533 50.67615,-132.02397c31.31117,-33.78864 74.56855,-54.68584 122.34366,-54.68584l0,0zm108.69363,69.41592c-27.81315,-30.01732 -66.243,-48.58139 -108.69363,-48.58139s-80.87725,18.56756 -108.69363,48.58139c-27.81638,30.01732 -45.02252,71.48788 -45.02252,117.29389s17.20614,87.27657 45.02252,117.29041c27.81638,30.0208 66.243,48.58139 108.69363,48.58139s80.88048,-18.56059 108.69363,-48.58139c27.81638,-30.01384 45.01929,-71.48092 45.01929,-117.29041s-17.20291,-87.27657 -45.01929,-117.29389l0,0z"/>

  <g stroke="null">
   <path stroke="null" d="m156.59449,233.03361l0,20.83366l26.25236,0l0,-20.83366l-26.25236,0zm-22.90994,-118.41894l0,156.50035l199.24344,0l0,23.01619l-210.74047,0c-6.35723,0 -11.51916,-5.1575 -11.51916,-11.51474l0,-168.00181l23.01619,0zm184.97509,-6.28197l1.90806,14.95455c0.5888,4.60855 4.79449,7.86243 9.40746,7.29134c4.60855,-0.58437 7.86243,-4.79449 7.29134,-9.40304l-4.86532,-37.8822c-0.25677,-2.66065 -1.7841,-5.16193 -4.28095,-6.55645c-2.27993,-1.26613 -4.86975,-1.3591 -7.12754,-0.49583l-36.48325,14.05143c-4.33407,1.67342 -6.48562,6.54317 -4.81219,10.87724c1.66899,4.33407 6.53874,6.48562 10.87281,4.81219l12.4577,-4.79449c-13.653,18.51832 -30.00206,33.9864 -47.65268,46.03681c-25.4245,17.35843 -53.46096,27.55391 -79.93024,29.46639c-4.64839,0.3276 -8.1369,4.35178 -7.8093,9.00018c0.33203,4.64839 4.35621,8.1369 9.0046,7.80487c29.37342,-2.07186 60.34501,-13.28113 88.23094,-32.33069c20.05893,-13.68399 38.55953,-31.46741 53.78856,-52.83232zm-21.33391,64.70564l0,80.82893l26.25236,0l0,-80.82893l-26.25236,0zm-46.90451,22.98077l0,57.84815l26.23465,0l0,-57.84815l-26.23465,0zm-46.90451,15.08736l0,42.7608l26.23465,0l0,-42.7608l-26.23465,0z" fill-rule="nonzero"/>
  </g>
 </g>
</svg>