<svg width="122.88" height="92.5" xmlns="http://www.w3.org/2000/svg" data-name="Layer 1">
 <title>information-technology</title>

 <g>
  <title>Layer 1</title>
  <path class="cls-1" d="m2.26667,86.05l11.47,0a2.14,2.14 0 0 1 -0.57,-1.5l0,-47a2.15,2.15 0 0 1 2.15,-2.15l90.1,0a2.16,2.16 0 0 1 2.15,2.15l0,47a2.19,2.19 0 0 1 -0.61,1.5l12,0a3.1,3.1 0 0 1 0,6.2l-116.69,0a3.1,3.1 0 0 1 0,-6.2zm85,-64.3l-6.1,0l0,9.56l-4.27,0l0,-11.7a2.13,2.13 0 0 1 2.14,-2.14l8.26,0a6.28,6.28 0 1 1 -0.06,4.28l0.03,0zm-44.1,1.5l0,8.06l-4.29,0l0,-5.92l-4.91,0a6.28,6.28 0 1 1 0,-4.29l7.1,0a2.12,2.12 0 0 1 1.51,0.63a2.15,2.15 0 0 1 0.59,1.52zm-10.94,-23.5a6.28,6.28 0 1 0 5.75,8.81l12.56,0l0,22.75l4.28,0l0,-24.88a2.13,2.13 0 0 0 -2.14,-2.15l-14.42,0a6.27,6.27 0 0 0 -6,-4.53l-0.03,0zm34.79,0.1a6.28,6.28 0 0 0 -2.14,12.19l0,19.27l4.29,0l0,-19.27a6.28,6.28 0 0 0 -2.15,-12.19zm-50.21,38.9l87.36,0l0,45.2l-87.36,0l0,-45.2zm40.26,48.83l7.1,0a1.21,1.21 0 0 1 1.18,1.17l0,0a1.21,1.21 0 0 1 -1.18,1.24l-7.1,0a1.21,1.21 0 0 1 -1.2,-1.24l0,0a1.2,1.2 0 0 1 1.2,-1.2l0,0.03z" fill-rule="evenodd" id="svg_1"/>
  <g stroke="null">
   <g stroke="null">
    <path stroke="null" d="m43.83323,61.38051c0.8717,0.7771 1.74277,1.51179 2.61542,2.20346c1.15172,-1.7491 2.40659,-3.35296 3.77062,-4.80242c-0.25756,-0.48505 -0.4031,-1.03908 -0.4031,-1.62602c0,-0.28983 0.03512,-0.57111 0.10252,-0.84101c-1.4251,-0.92328 -2.89164,-1.95286 -4.41862,-3.10015c-1.12926,2.32875 -1.76144,4.94133 -1.76144,7.70166l0.0038,0l0,0l0,0.00095l-0.00411,0c0,0.18731 0.0038,0.37399 0.00949,0.55972l0.08543,-0.09619l0,0zm2.50974,-9.70578c1.52856,1.15299 2.99131,2.18637 4.41008,3.1106c0.63281,-0.67521 1.53331,-1.09698 2.53094,-1.09698c0.79133,0 1.52034,0.26547 2.10411,0.71192c0.41766,-0.27686 0.84386,-0.5439 1.27733,-0.79861c1.80605,-1.06186 3.74404,-1.92787 5.82505,-2.58726c-0.01519,-0.13795 -0.02215,-0.27781 -0.02215,-0.41829c0,-0.52967 0.106,-1.03465 0.299,-1.49376c-2.11391,-1.79118 -4.61733,-3.37733 -7.49884,-4.77869c-2.40438,0.89543 -4.56132,2.29838 -6.34206,4.07912c-0.98339,0.98244 -1.85161,2.08101 -2.58346,3.27196l0,0zm11.35205,-8.06142c2.27876,1.22639 4.31168,2.57872 6.09115,4.07121c0.59484,-0.52144 1.35106,-0.86442 2.18321,-0.94353c0.18668,-0.9141 0.36292,-1.84339 0.5303,-2.79039c-1.60355,-0.47809 -3.30139,-0.73628 -5.05903,-0.73628l0,0.0038l0,0l-0.00158,0l0,-0.0038c-1.28461,0 -2.53663,0.13859 -3.74404,0.39899l0,0zm10.46547,0.92581c-0.14713,0.82234 -0.30122,1.63234 -0.46259,2.42937c1.16026,0.43538 2.05633,1.41117 2.38128,2.62111c1.57064,-0.11549 3.20425,-0.13795 4.90557,-0.06328c-0.3278,-0.38886 -0.67078,-0.76476 -1.03022,-1.12451c-1.64468,-1.64373 -3.60989,-2.96505 -5.79404,-3.8627l0,0zm8.17121,6.81066c-2.17403,-0.16295 -4.23574,-0.16706 -6.18955,-0.01993c-0.1601,0.83595 -0.58978,1.57634 -1.1938,2.12752c0.51384,0.79197 0.9796,1.61273 1.39567,2.46323c0.60624,1.24063 1.10553,2.5436 1.49945,3.90889c0.11992,-0.01234 0.24173,-0.0193 0.36577,-0.0193c1.55641,0 2.87361,1.02516 3.31215,2.43886c1.14729,0.04018 2.3335,0.06138 3.56496,0.06898c0.03639,-0.4629 0.056,-0.9296 0.056,-1.40073l-0.0038,0l0,-0.00095l0,-0.00063l0.0038,0c-0.00095,-3.52319 -1.03275,-6.80655 -2.81064,-9.56593l0,0zm2.5322,12.70089c-1.12166,-0.00791 -2.20662,-0.02753 -3.25994,-0.06233c-0.28129,1.35106 -1.34979,2.4145 -2.70433,2.68851c0.05948,1.61905 0.0038,3.31183 -0.17149,5.07928c0.9932,-0.10473 2.00032,-0.24901 3.02517,-0.43031c1.54501,-2.11929 2.63029,-4.59265 3.1106,-7.27514l0,0zm-2.11107,8.84009l0.0038,0.01804l-0.02088,0.0038c-0.48125,0.61415 -0.99858,1.19823 -1.55039,1.75005c-3.51496,3.51496 -8.37497,5.68963 -13.74408,5.69026l0,0.0038l-0.00063,0l-0.00095,0l0,-0.0038c-5.36911,0 -10.2288,-2.1753 -13.74535,-5.69121c-3.51528,-3.5156 -5.69026,-8.37561 -5.69089,-13.74472l-0.00348,0l0,-0.00095l0,0l0.00348,0c0,-5.36974 2.17561,-10.22944 5.69153,-13.74535s8.37466,-5.69058 13.74408,-5.69058l0,-0.00348l0.00158,0l0,0l0,0.00348c5.36974,0 10.22944,2.17498 13.74503,5.69153c3.51591,3.51496 5.69058,8.37466 5.69058,13.74408l0.0038,0l0,0.00063l0,0.00095l-0.0038,0c0,4.51797 -1.54027,8.6743 -4.12341,11.97347l0,0zm-2.72015,0.45911c-0.50878,0.06771 -1.01313,0.12625 -1.51401,0.17466c-0.06233,0.44772 -0.13257,0.89986 -0.20883,1.35739c0.57776,-0.44993 1.12736,-0.93403 1.64468,-1.45136l0.07815,-0.08068l0,0zm-3.73961,2.89417c0.17719,-0.88119 0.3278,-1.74372 0.45215,-2.58821c-3.17071,0.16485 -6.20094,-0.06391 -9.1334,-0.68312c-0.57333,0.67996 -1.43048,1.11375 -2.38919,1.11375c-0.07119,0 -0.14143,-0.00285 -0.21041,-0.00696c-0.5534,1.41149 -1.08907,2.7847 -1.58014,4.08165c1.28778,0.29837 2.62997,0.45721 4.00729,0.45721l0,-0.0038l0.00095,0l0.00063,0l0,0.0038c3.22387,0 6.24745,-0.86474 8.85212,-2.37432l0,0zm-14.53478,1.44092c0.53758,-1.42889 1.0742,-2.80843 1.61937,-4.20125c-0.6866,-0.50277 -1.16026,-1.27987 -1.25993,-2.17023c-3.1454,-1.24633 -6.19493,-2.97549 -9.20997,-5.19034c-0.48347,0.81443 -0.94637,1.65861 -1.38998,2.53284c0.86664,1.77789 2.02405,3.39093 3.40834,4.77521c1.90129,1.90066 4.23131,3.37163 6.83217,4.25377l0,0zm-11.09861,-11.12107c0.27907,-0.50942 0.56542,-1.00871 0.85873,-1.49819c-0.51574,-0.40595 -1.03117,-0.82645 -1.54565,-1.26057c0.15599,0.94637 0.38697,1.86933 0.68692,2.75875l0,0zm11.80324,-10.79422c0.18573,0.42462 0.2892,0.89322 0.2892,1.38618c0,0.33159 -0.04714,0.65275 -0.13416,0.9565c1.90509,0.91125 3.77758,1.63456 5.67539,2.20567c0.68977,-2.06519 1.35264,-4.20979 1.96995,-6.45344c-0.48505,-0.30881 -0.89638,-0.72204 -1.20266,-1.20836c-1.97596,0.62142 -3.81144,1.4387 -5.51782,2.44171c-0.36513,0.21452 -0.72615,0.43917 -1.0799,0.67173l0,0zm-0.73406,3.84498c-0.6268,0.62427 -1.49091,1.00965 -2.44519,1.00965c-0.69673,0 -1.34599,-0.20598 -1.89021,-0.55909c-1.28778,1.37922 -2.47304,2.9081 -3.56464,4.57619c2.8271,2.08955 5.67476,3.73044 8.59709,4.92487c0.51321,-1.02389 1.57286,-1.72727 2.79609,-1.72727c0.1177,0 0.23319,0.00664 0.34805,0.01962c0.72679,-1.89907 1.45516,-3.857 2.16201,-5.89434c-2.01013,-0.6075 -3.99052,-1.37795 -6.00319,-2.34964l0,0zm11.69978,-5.30076c-0.3452,0.1003 -0.71033,0.15409 -1.08844,0.15409c-0.14618,0 -0.29109,-0.00728 -0.43316,-0.02373c-0.60845,2.20282 -1.25867,4.30946 -1.93514,6.33763c1.66114,0.41987 3.35581,0.73406 5.12421,0.96536c0.25724,-0.52175 0.64136,-0.96884 1.11312,-1.3017c-0.37178,-1.31878 -0.84892,-2.57239 -1.43016,-3.76208c-0.40057,-0.81918 -0.85113,-1.60798 -1.35042,-2.36957l0,0zm3.72696,12.26868c-1.34694,-0.42873 -2.33698,-1.65797 -2.41007,-3.12895c-1.83769,-0.24458 -3.60261,-0.57618 -5.33462,-1.01978c-0.73058,2.1079 -1.48332,4.13227 -2.23447,6.09305c0.71255,0.5727 1.16881,1.45167 1.16881,2.43602c0,0.12973 -0.00854,0.25724 -0.02373,0.38317c2.77046,0.55086 5.63869,0.73691 8.64519,0.55593c0.19807,-1.86269 0.25977,-3.63488 0.18889,-5.31943l0,0z"/>
   </g>
  </g>
 </g>
</svg>