<svg width="512" height="432" xmlns="http://www.w3.org/2000/svg" xml:space="preserve" enable-background="new 0 0 121.702 122.881" version="1.1">

 <g>
  <title>Layer 1</title>
  <path stroke="null" id="svg_2" d="m232.65618,2.04477c47.77834,0 91.03249,20.89721 122.34366,54.68933c31.31117,33.78864 50.67615,80.46522 50.67615,132.02397c0,37.72014 -10.36822,72.82856 -28.19393,102.19121l74.88156,88.07054l-51.63456,50.93542l-72.2161,-85.74785c-27.43882,19.74457 -60.4022,31.2605 -95.85679,31.2605c-47.77834,0 -91.03249,-20.90069 -122.34366,-54.68933c-31.31117,-33.79212 -50.67615,-80.4687 -50.67615,-132.02397c0,-51.55875 19.36498,-98.23533 50.67615,-132.02397c31.31117,-33.78864 74.56855,-54.68584 122.34366,-54.68584l0,0zm108.69363,69.41592c-27.81315,-30.01732 -66.243,-48.58139 -108.69363,-48.58139s-80.87725,18.56756 -108.69363,48.58139c-27.81638,30.01732 -45.02252,71.48788 -45.02252,117.29389s17.20614,87.27657 45.02252,117.29041c27.81638,30.0208 66.243,48.58139 108.69363,48.58139s80.88048,-18.56059 108.69363,-48.58139c27.81638,-30.01384 45.01929,-71.48092 45.01929,-117.29041s-17.20291,-87.27657 -45.01929,-117.29389l0,0z"/>

  <path stroke="null" fill-rule="evenodd" d="m107.07025,185.90383l25.74078,0a2.99054,2.99054 0 0 1 2.96839,2.99054l0,66.63362a2.96839,2.96839 0 0 1 -2.96839,2.96839l-25.74078,0a2.99054,2.99054 0 0 1 -2.99054,-2.96839l0,-66.63362a3.01269,3.01269 0 0 1 2.99054,-2.99054zm246.48679,-68.18427a15.19636,15.19636 0 1 1 -15.15206,15.99384l-39.25358,-27.57941a15.24067,15.24067 0 0 1 -9.06022,2.96839a15.0856,15.0856 0 0 1 -9.3925,-3.25636l-32.96238,25.07622a14.4875,14.4875 0 0 1 0.13291,1.97154a15.17421,15.17421 0 1 1 -30.0826,-2.83547l-33.62694,-24.36735a15.21852,15.21852 0 0 1 -18.6964,0.22152l-38.52256,27.51295a15.19636,15.19636 0 1 1 -4.78486,-11.58557l37.3928,-26.58256c0,-0.44304 0,-0.86393 0,-1.30698a15.17421,15.17421 0 1 1 30.34842,0c0,0.31013 0,0.62026 0,0.90824l34.77885,25.14267a15.19636,15.19636 0 0 1 8.01907,-2.21521a15.01915,15.01915 0 0 1 8.66148,2.72471l33.60479,-25.65217c0,-0.31013 0,-0.62026 0,-0.93039a15.19636,15.19636 0 0 1 30.37058,0a11.34189,11.34189 0 0 1 0,1.5285l37.858,26.58256a15.06345,15.06345 0 0 1 10.3672,-4.31967zm-21.04453,62.02597l25.74078,0a3.01269,3.01269 0 0 1 3.05699,3.12345l0,72.659a2.99054,2.99054 0 0 1 -2.99054,2.96839l-25.74078,0a2.96839,2.96839 0 0 1 -2.96839,-2.96839l0,-72.659a2.99054,2.99054 0 0 1 2.96839,-2.99054l-0.06646,-0.13291zm-56.31072,-37.88015l25.74078,0a3.01269,3.01269 0 0 1 2.99054,2.99054l0,110.76067a2.99054,2.99054 0 0 1 -2.99054,2.96839l-25.74078,0a2.96839,2.96839 0 0 1 -2.96839,-2.96839l0,-110.76067a2.96839,2.96839 0 0 1 2.96839,-2.99054zm-56.37718,37.92445l25.74078,0a2.99054,2.99054 0 0 1 2.96839,3.07915l0,72.659a2.96839,2.96839 0 0 1 -2.96839,2.96839l-25.74078,0a2.96839,2.96839 0 0 1 -2.96839,-2.96839l0,-72.659a2.99054,2.99054 0 0 1 2.96839,-2.99054l0,-0.08861zm-56.37718,-37.92445l25.74078,0a2.99054,2.99054 0 0 1 2.96839,2.99054l0,110.76067a2.96839,2.96839 0 0 1 -2.96839,2.96839l-25.74078,0a2.99054,2.99054 0 0 1 -2.99054,-2.96839l0,-110.76067a2.99054,2.99054 0 0 1 2.99054,-2.99054z" class="cls-1"/>
 </g>
</svg>