<svg width="122.88" height="92.5" xmlns="http://www.w3.org/2000/svg" data-name="Layer 1">

 <title>information-technology</title>
 <g>
  <title>Layer 1</title>
  <path id="svg_1" fill-rule="evenodd" d="m2.6,86.05l11.47,0a2.14,2.14 0 0 1 -0.57,-1.5l0,-47a2.15,2.15 0 0 1 2.15,-2.15l90.1,0a2.16,2.16 0 0 1 2.15,2.15l0,47a2.19,2.19 0 0 1 -0.61,1.5l12,0a3.1,3.1 0 0 1 0,6.2l-116.69,0a3.1,3.1 0 0 1 0,-6.2zm85,-64.3l-6.1,0l0,9.56l-4.27,0l0,-11.7a2.13,2.13 0 0 1 2.14,-2.14l8.26,0a6.28,6.28 0 1 1 -0.06,4.28l0.03,0zm-44.1,1.5l0,8.06l-4.29,0l0,-5.92l-4.91,0a6.28,6.28 0 1 1 0,-4.29l7.1,0a2.12,2.12 0 0 1 1.51,0.63a2.15,2.15 0 0 1 0.59,1.52zm-10.94,-23.5a6.28,6.28 0 1 0 5.75,8.81l12.56,0l0,22.75l4.28,0l0,-24.88a2.13,2.13 0 0 0 -2.14,-2.15l-14.42,0a6.27,6.27 0 0 0 -6,-4.53l-0.03,0zm34.79,0.1a6.28,6.28 0 0 0 -2.14,12.19l0,19.27l4.29,0l0,-19.27a6.28,6.28 0 0 0 -2.15,-12.19zm-50.21,38.9l87.36,0l0,45.2l-87.36,0l0,-45.2zm40.26,48.83l7.1,0a1.21,1.21 0 0 1 1.18,1.17l0,0a1.21,1.21 0 0 1 -1.18,1.24l-7.1,0a1.21,1.21 0 0 1 -1.2,-1.24l0,0a1.2,1.2 0 0 1 1.2,-1.2l0,0.03z" class="cls-1"/>
  <path stroke="null" clip-rule="evenodd" fill-rule="evenodd" d="m41.87119,66.90399c-0.14359,0.64063 -0.07732,1.38068 0.15464,2.13176c0.09941,0.33136 0.23195,0.65168 0.38659,0.972c0.15464,0.33136 0.34241,0.65168 0.56332,0.96095c0.20986,0.30927 0.44182,0.6075 0.69586,0.87259c0.243,0.26509 0.50809,0.50809 0.77318,0.70691l0.01105,0.01105c0.65168,0.50809 1.38068,0.8505 2.12072,0.91677c0.96095,0.08836 2.36372,-0.68482 3.21421,-1.24813l0.18777,-0.1215l0.02209,-0.01105c0.33136,-0.22091 0.66272,-0.41973 0.98304,-0.62959c0.18777,-0.11045 0.40868,-0.14359 0.6075,-0.09941c0.19882,0.04418 0.37554,0.15464 0.486,0.33136c0.03314,0.04418 0.05523,0.07732 0.06627,0.1215l0.32032,0.57436l0.01105,0.01105c0.41973,0.76213 0.82841,1.50218 1.27022,2.23117c0.41973,0.70691 0.83945,1.35859 1.27022,1.93295l0.01105,0.01105l0.05523,0.06627c0.04418,0.06627 0.11045,0.15464 0.18777,0.25404l0.01105,0.01105c0.26509,0.35345 0.53018,0.729 0.80631,1.06036c0.26509,0.32032 0.54123,0.59645 0.79527,0.78422l0,0c0.17673,0.1215 0.3645,0.18777 0.54123,0.14359c0.19882,-0.04418 0.41973,-0.22091 0.67377,-0.56332c0.05523,-0.08836 0.11045,-0.17673 0.16568,-0.26509l0.16568,-0.25404l0.01105,-0.01105c0.16568,-0.25404 0.33136,-0.50809 0.45286,-0.77318c0.08836,-0.18777 0.15464,-0.38659 0.17673,-0.59645c-0.09941,-0.02209 -0.22091,-0.04418 -0.34241,-0.05523l-0.01105,0c-0.88363,-0.09941 -1.74517,-0.20986 -2.03236,-1.91086l0,-0.01105l0,0l-0.03314,-0.20986c-0.03314,-0.22091 -0.05523,-0.38659 -0.07732,-0.486c-0.01105,-0.06627 -0.02209,-0.1215 -0.03314,-0.14359l0,0.01105c0,0.01105 0,0.01105 0,0.01105l0,0l0,0c-0.07732,-0.04418 -0.16568,-0.08836 -0.27614,-0.14359l-0.09941,-0.04418l-0.01105,0l0,0c-0.28718,-0.14359 -0.51913,-0.34241 -0.69586,-0.59645c-0.19882,-0.26509 -0.33136,-0.57436 -0.41973,-0.90572l0,0c-0.08836,-0.33136 -0.14359,-0.68482 -0.16568,-1.03827c-0.02209,-0.40868 -0.01105,-0.80631 0.03314,-1.14872l0,-0.01105c0.02209,-0.14359 0.06627,-0.26509 0.14359,-0.37554l0.01105,-0.02209c0.07732,-0.09941 0.18777,-0.18777 0.30927,-0.243c0.01105,0 0.02209,-0.01105 0.03314,-0.01105c2.46313,-1.10454 4.55071,-1.66786 6.35111,-1.96608c1.50218,-0.243 2.81658,-0.28718 3.99844,-0.29823c-2.44104,-1.61263 -4.9373,-4.19726 -7.04697,-7.06906c-2.1649,-2.94912 -3.91007,-6.21857 -4.76057,-9.07933c-0.56332,1.65681 -1.36963,3.65603 -2.73926,5.84302c-1.60158,2.50731 -8.92469,8.58228 -9.33337,10.37164l0,0l0,0zm21.09673,-22.72041c-0.40868,-0.23195 -0.54123,-0.75109 -0.30927,-1.15977c0.23195,-0.40868 0.75109,-0.54123 1.15977,-0.30927c2.25326,1.30336 5.13612,4.07576 7.56611,7.26788c2.1649,2.83867 3.97635,6.04184 4.6943,8.85842c0.11045,0.45286 -0.15464,0.91677 -0.61854,1.03827c-0.45286,0.11045 -0.91677,-0.15464 -1.03827,-0.61854c-0.66272,-2.59567 -2.36372,-5.57793 -4.39607,-8.25092c-2.2864,-3.0154 -4.98148,-5.62211 -7.05802,-6.82606l0,0l0,0zm14.73458,-1.86667c-0.32032,-0.34241 -0.29823,-0.88363 0.05523,-1.20395c0.34241,-0.32032 0.88363,-0.29823 1.20395,0.05523c0.64063,0.69586 1.27022,1.42486 1.88876,2.19804c0.59645,0.75109 1.17081,1.52427 1.72308,2.31954c0.26509,0.38659 0.16568,0.91677 -0.22091,1.18186c-0.38659,0.26509 -0.91677,0.16568 -1.18186,-0.22091c-0.51913,-0.75109 -1.0714,-1.50218 -1.64577,-2.22013c-0.6075,-0.74004 -1.215,-1.44695 -1.82249,-2.10967l0,0zm-7.16847,0.82841c-0.35345,-0.30927 -0.38659,-0.8505 -0.07732,-1.1929c0.30927,-0.35345 0.8505,-0.38659 1.1929,-0.07732c1.52427,1.34754 3.11481,3.07062 4.5728,4.94834c1.36963,1.76727 2.60672,3.67812 3.54558,5.5448c0.20986,0.41973 0.04418,0.92781 -0.37554,1.13768c-0.41973,0.20986 -0.92781,0.04418 -1.13768,-0.37554c-0.88363,-1.75622 -2.06549,-3.57871 -3.36885,-5.26866c-1.39172,-1.8004 -2.91599,-3.44617 -4.35189,-4.71639l0,0zm-12.56968,12.73536c0.81736,-0.33136 1.63472,-0.47495 2.42999,-0.38659c2.24222,0.243 3.86589,2.01026 3.67812,4.30771c-0.06627,0.87259 -0.37554,1.82249 -0.92781,2.87181c0.45286,0.44182 0.93886,0.88363 1.46904,1.33649c0.75109,0.65168 1.50218,1.215 2.26431,1.68995c0.68482,0.43077 1.38068,0.77318 2.06549,1.02722c0.06627,-0.01105 0.13254,-0.02209 0.18777,-0.04418c0.06627,-0.02209 0.1215,-0.05523 0.17673,-0.08836c0.04418,-0.03314 0.09941,-0.06627 0.14359,-0.1215c0.11045,-0.22091 0.18777,-0.486 0.22091,-0.78422c0.03314,-0.33136 0.03314,-0.69586 -0.02209,-1.0935c-0.15464,-1.20395 -0.67377,-2.66194 -1.4359,-4.2083c-0.83945,-1.70099 -1.97713,-3.50139 -3.24735,-5.22448c-1.24813,-1.68995 -2.61776,-3.30258 -3.97635,-4.63907c-1.29231,-1.28127 -2.56253,-2.31954 -3.67812,-2.96017l-0.01105,-0.01105c-0.40868,-0.23195 -0.79527,-0.40868 -1.13768,-0.50809l-0.02209,-0.01105c-0.29823,-0.08836 -0.56332,-0.1215 -0.78422,-0.08836l0,0c-0.05523,0.01105 -0.08836,0.01105 -0.1215,0.02209l-0.01105,0.01105l0,0l0,0c-0.02209,0.03314 -0.05523,0.07732 -0.07732,0.13254c-0.01105,0.02209 -0.03314,0.05523 -0.05523,0.09941l-0.03314,0.06627l0,0.02209l0,0.01105c-0.11045,0.66272 0,1.54636 0.26509,2.57358c0.29823,1.0935 0.78422,2.34163 1.42486,3.65603c0.41973,0.8505 0.81736,1.62368 1.215,2.34163l0,0l0,0zm-1.44695,17.76102l0,0l0,0l0,0l0,0l0,0l0,0zm9.88564,-5.16925l-0.02209,0c-2.47417,0.02209 -5.56689,0.05523 -9.95191,1.94399c0,0.16568 0,0.34241 0.01105,0.51913c0.01105,0.20986 0.04418,0.40868 0.09941,0.58541l0,0c0.04418,0.13254 0.08836,0.243 0.14359,0.33136c0.04418,0.06627 0.08836,0.1215 0.14359,0.14359l0.08836,0.04418l0.01105,0l0.02209,0.01105l0,0c0.47495,0.23195 0.71795,0.35345 0.94991,0.71795l0,0.01105c0.17673,0.28718 0.23195,0.59645 0.32032,1.15977l0,0l0.01105,0.05523l0,0.01105l0,0l0.03314,0.20986l0,0.01105c0.08836,0.486 0.35345,0.51913 0.61854,0.55227l0,0l0,0c1.32545,0.15464 1.8004,0.77318 1.78936,1.59054c0,0.729 -0.43077,1.57949 -0.92781,2.34163l0,0c-0.05523,0.08836 -0.11045,0.17673 -0.15464,0.243c-0.04418,0.07732 -0.09941,0.15464 -0.14359,0.22091l-0.02209,0.03314c-0.01105,0.01105 -0.01105,0.02209 -0.02209,0.03314c-0.57436,0.81736 -1.15977,1.22604 -1.75622,1.33649c-0.6075,0.11045 -1.18186,-0.08836 -1.74517,-0.47495c-0.70691,-0.49704 -1.32545,-1.3144 -1.89981,-2.08758l-0.08836,-0.1215l-0.08836,-0.1215l0,0l0,0l-0.15464,-0.20986l-0.01105,-0.02209c-0.45286,-0.6075 -0.89468,-1.30336 -1.32545,-2.03236c-0.40868,-0.68482 -0.82841,-1.4359 -1.25918,-2.20908l-0.01105,0.01105c-0.08836,0.05523 -0.16568,0.11045 -0.23195,0.15464l0,0l0,0l-0.30927,0.20986l-0.02209,0.01105c-1.28127,0.83945 -2.4079,1.60158 -4.13098,1.42486c-1.04931,-0.11045 -2.05445,-0.57436 -2.93808,-1.27022c-0.34241,-0.26509 -0.66272,-0.56332 -0.96095,-0.89468c-0.30927,-0.33136 -0.58541,-0.68482 -0.8505,-1.06036c-0.25404,-0.37554 -0.47495,-0.76213 -0.67377,-1.15977c-0.18777,-0.39763 -0.35345,-0.80631 -0.486,-1.215l0,-0.01105c-0.30927,-1.02722 -0.39763,-2.07654 -0.17673,-2.99331c0.91677,-3.89903 9.5101,-8.06315 12.58072,-17.86043l0,-0.01105c0.14359,-0.46391 0.27614,-0.88363 0.41973,-1.28127l0,0c0.13254,-0.38659 0.27614,-0.729 0.43077,-1.01618l0.01105,-0.01105c0.07732,-0.14359 0.14359,-0.25404 0.22091,-0.35345c0.08836,-0.11045 0.18777,-0.20986 0.30927,-0.29823c0.1215,-0.08836 0.25404,-0.15464 0.39763,-0.20986c0.14359,-0.04418 0.29823,-0.07732 0.47495,-0.09941c0.44182,-0.05523 0.91677,-0.01105 1.42486,0.13254c0.49704,0.14359 1.01618,0.37554 1.5574,0.68482l0.01105,0.01105c1.22604,0.69586 2.58463,1.81145 3.9653,3.15899c1.42486,1.41381 2.87181,3.09271 4.17516,4.87103c1.33649,1.82249 2.54044,3.73335 3.43512,5.55584c0.81736,1.6789 1.38068,3.26944 1.5574,4.63907c0.07732,0.57436 0.07732,1.11559 0.01105,1.61263c-0.06627,0.486 -0.20986,0.92781 -0.44182,1.3144l-0.01105,0.01105c-0.65168,1.14872 -2.72822,1.12663 -3.98739,1.11559c-0.15464,0.01105 -0.29823,0 -0.41973,0l0,0l0,0z" class="st0"/>
 </g>
</svg>