<svg width="512" height="432" xmlns="http://www.w3.org/2000/svg" version="1.1" enable-background="new 0 0 121.702 122.881" xml:space="preserve">
 <g>
  <title>Layer 1</title>
  <path d="m232.65619,2.04477c47.77834,0 91.03249,20.89721 122.34366,54.68933c31.31117,33.78864 50.67615,80.46522 50.67615,132.02397c0,37.72014 -10.36822,72.82856 -28.19393,102.19121l74.88156,88.07054l-51.63456,50.93542l-72.2161,-85.74785c-27.43882,19.74457 -60.4022,31.2605 -95.85679,31.2605c-47.77834,0 -91.03249,-20.90069 -122.34366,-54.68933c-31.31117,-33.79212 -50.67615,-80.4687 -50.67615,-132.02397c0,-51.55875 19.36498,-98.23533 50.67615,-132.02397c31.31117,-33.78864 74.56855,-54.68584 122.34366,-54.68584l0,0l0.00001,-0.00001zm108.69363,69.41592c-27.81315,-30.01732 -66.243,-48.58139 -108.69363,-48.58139s-80.87725,18.56756 -108.69363,48.58139c-27.81638,30.01732 -45.02252,71.48788 -45.02252,117.29389s17.20614,87.27657 45.02252,117.29041c27.81638,30.0208 66.243,48.58139 108.69363,48.58139s80.88048,-18.56059 108.69363,-48.58139c27.81638,-30.01384 45.01929,-71.48092 45.01929,-117.29041s-17.20291,-87.27657 -45.01929,-117.29389l0,0z" id="svg_2" stroke="null"/>
  <g stroke="null">
   <path stroke="null" d="m259.97879,283.75816l-45.95845,0a1.76498,1.76498 0 0 1 -1.24977,-0.51831l-7.07097,-7.07053a1.76631,1.76631 0 0 1 -0.51786,-1.24977l0,-24.74774a1.76454,1.76454 0 0 1 1.76763,-1.76763l60.09995,0a1.76188,1.76188 0 0 1 1.76763,1.76763l0,24.74774a1.76719,1.76719 0 0 1 -0.51786,1.24977l-7.07053,7.07053a1.76675,1.76675 0 0 1 -1.24977,0.51831zm-45.22654,-3.53571l44.49463,0l6.0348,-6.0348l0,-22.2482l-56.56469,0l0,22.2482l6.03525,6.0348z"/>
   <path stroke="null" d="m203.4141,262.54524a1.76631,1.76631 0 0 1 -1.76409,-1.67786c-0.05174,-0.97337 0.69741,-1.80213 1.67078,-1.85741l67.17446,-3.53527c0.98752,-0.06899 1.8092,0.69741 1.85741,1.67122c0.0482,0.97337 -0.69697,1.80876 -1.67078,1.85697l-67.17446,3.53527c-0.0314,0.00708 -0.06236,0.00708 -0.09331,0.00708zm0,10.60668a1.76675,1.76675 0 0 1 -1.76409,-1.67786c-0.05174,-0.97381 0.69741,-1.80213 1.67078,-1.85741l67.17446,-3.53527c0.98752,-0.09685 1.8092,0.69741 1.85741,1.67078s-0.69697,1.8092 -1.67078,1.85741l-67.17446,3.53527c-0.0314,0.00708 -0.06236,0.00708 -0.09331,0.00708zm63.63522,-21.21248l-60.09995,0a1.76896,1.76896 0 0 1 -1.76763,-1.76763l0,-10.9587c-17.73205,-11.08297 -28.28301,-30.04401 -28.28301,-50.91109c0,-33.14234 26.96071,-60.10349 60.10172,-60.10349c33.14234,0 60.09951,26.96071 60.09951,60.10349c0,20.87416 -10.55052,39.82856 -28.28301,50.91109l0,10.95826a1.76675,1.76675 0 0 1 -1.76763,1.76807zm-58.33232,-3.53527l56.56469,0l0,-10.17815c0,-0.61471 0.3246,-1.19449 0.85618,-1.51246c17.17306,-10.3577 27.42727,-28.45592 27.42727,-48.41155c0,-31.19162 -25.37616,-56.56778 -56.56424,-56.56778c-31.19029,0 -56.56645,25.37616 -56.56645,56.56778c0,19.95563 10.25422,38.05385 27.42727,48.41155a1.76807,1.76807 0 0 1 0.85618,1.51246l0,10.17815l-0.00088,0zm28.28345,42.42451c-13.31319,0 -17.32519,-7.72018 -17.49059,-8.05142a1.76498,1.76498 0 0 1 0.79072,-2.36819c0.87387,-0.43472 1.9264,-0.08977 2.3651,0.77348c0.13798,0.26888 3.34908,6.11087 14.3352,6.11087c11.0047,0 14.20165,-5.86277 14.33299,-6.11087c0.45551,-0.85662 1.51202,-1.20157 2.37527,-0.75977s1.21528,1.49123 0.78055,2.35448c-0.16628,0.33124 -4.17784,8.05142 -17.48926,8.05142zm-76.00776,-100.75904l-35.35707,0a1.76852,1.76852 0 0 1 -1.76763,-1.76763a1.76586,1.76586 0 0 1 1.76763,-1.7694l35.35707,0a1.76631,1.76631 0 0 1 1.76807,1.7694a1.76896,1.76896 0 0 1 -1.76807,1.76763zm152.01685,0a1.76631,1.76631 0 0 1 -1.76763,-1.76763a1.77117,1.77117 0 0 1 1.76763,-1.76763l35.35398,-0.00177a1.76807,1.76807 0 0 1 0,3.53703l-35.35398,0zm-172.45231,55.68242a1.76365,1.76365 0 0 1 -1.52927,-0.8836a1.76719,1.76719 0 0 1 0.64567,-2.41684l30.62422,-17.67721a1.76188,1.76188 0 0 1 2.4133,0.64921a1.75923,1.75923 0 0 1 -0.64567,2.40976l-30.62378,17.67721a1.72606,1.72606 0 0 1 -0.88448,0.24146zm162.27416,-93.68586a1.75481,1.75481 0 0 1 -1.52617,-0.88404a1.76807,1.76807 0 0 1 0.64213,-2.41507l30.61051,-17.67677a1.76586,1.76586 0 0 1 2.41684,0.64744a1.76409,1.76409 0 0 1 -0.64921,2.41507l-30.61051,17.67677a1.74773,1.74773 0 0 1 -0.8836,0.2366zm-27.82042,-27.82396a1.78886,1.78886 0 0 1 -0.88404,-0.2366a1.76763,1.76763 0 0 1 -0.64213,-2.41507l17.67013,-30.61361c0.48337,-0.84424 1.5673,-1.12904 2.40976,-0.64744a1.76365,1.76365 0 0 1 0.64921,2.41507l-17.67013,30.61361a1.7694,1.7694 0 0 1 -1.5328,0.88404zm-38.00344,-10.18832a1.76675,1.76675 0 0 1 -1.76807,-1.76763l0,-35.34735a1.76675,1.76675 0 0 1 1.76807,-1.76763a1.76675,1.76675 0 0 1 1.76763,1.76763l0,35.34735a1.76675,1.76675 0 0 1 -1.76763,1.76763zm-38.00565,10.18125a1.75923,1.75923 0 0 1 -1.52927,-0.88404l-17.67721,-30.61007a1.76542,1.76542 0 0 1 0.64567,-2.41507a1.76188,1.76188 0 0 1 2.4133,0.64744l17.67721,30.61007a1.76542,1.76542 0 0 1 -1.52971,2.65167zm134.44666,121.51026a1.74375,1.74375 0 0 1 -0.8836,-0.24146l-30.61715,-17.67721a1.761,1.761 0 0 1 -0.64213,-2.40976c0.48381,-0.84954 1.56774,-1.13258 2.40976,-0.64921l30.61715,17.67721a1.76542,1.76542 0 0 1 0.64921,2.41684a1.77073,1.77073 0 0 1 -1.53325,0.8836zm-162.26752,-93.69293a1.77073,1.77073 0 0 1 -0.88404,-0.2366l-30.61671,-17.67013a1.76586,1.76586 0 0 1 -0.64567,-2.41507a1.77338,1.77338 0 0 1 2.4133,-0.64744l30.61715,17.67013a1.76542,1.76542 0 0 1 0.64567,2.41507a1.76498,1.76498 0 0 1 -1.52971,0.88404z"/>
   <path stroke="null" d="m237.00045,207.74686c-9.74652,0 -17.67721,-7.93378 -17.67721,-17.67721c0,-9.74829 7.93069,-17.67854 17.67721,-17.67854c9.74785,0 17.67544,7.93024 17.67544,17.67854c0,9.74343 -7.92759,17.67721 -17.67544,17.67721zm0,-31.82004c-7.79934,0 -14.14195,6.34393 -14.14195,14.14283c0,7.7958 6.34216,14.14195 14.14195,14.14195c7.80111,0 14.13973,-6.34614 14.13973,-14.14195c0,-7.7989 -6.33862,-14.14283 -14.13973,-14.14283z"/>
   <path stroke="null" d="m237.00045,197.14062c-3.8979,0 -7.07097,-3.17617 -7.07097,-7.07053c0,-3.89923 3.17263,-7.0723 7.07097,-7.0723c3.89923,0 7.06876,3.17307 7.06876,7.0723c0,3.89436 -3.16953,7.07053 -7.06876,7.07053zm0,-10.60801a3.53748,3.53748 0 0 0 -3.53571,3.53703c0,1.94718 1.58455,3.53527 3.53571,3.53527s3.5335,-1.58808 3.5335,-3.53527c0,-1.95382 -1.58278,-3.53703 -3.5335,-3.53703z"/>
   <path stroke="null" d="m242.30158,230.72697l-10.60447,0c-2.92453,0 -5.30334,-2.38235 -5.30334,-5.3029l0,-1.27056c-0.00708,-0.80134 -2.23729,-3.05897 -3.40392,-3.62504c-0.83893,-0.02742 -1.83353,0.37944 -2.59993,1.14629l-0.89067,0.89067c-1.99539,1.99583 -5.50323,1.99583 -7.49906,0l-7.49906,-7.49154a5.27946,5.27946 0 0 1 -1.54695,-3.74975c0,-1.42224 0.54882,-2.75471 1.54695,-3.74975l0.89067,-0.89067c0.56607,-0.56607 0.59393,-3.7356 0.16938,-4.95795c-0.12073,-0.30382 -1.20157,-1.04944 -2.64459,-1.04944l-1.27056,0c-2.92409,0 -5.3029,-2.38235 -5.3029,-5.3029l-0.00354,-10.60801c0,-2.92409 2.37881,-5.3029 5.3029,-5.3029l1.27409,0c0.78365,-0.00708 3.07268,-2.26338 3.61487,-3.39729c0.12073,-0.30028 -0.12427,-1.58985 -1.14275,-2.60656l-0.88713,-0.88758c-2.06791,-2.06791 -2.06791,-5.43071 0,-7.49906l7.49906,-7.50216c1.99583,-1.99583 5.50323,-1.99583 7.49906,0l0.89067,0.89067c0.11764,0.11896 0.82876,0.45772 2.47566,0.45772c1.13258,0 2.14752,-0.17115 2.47566,-0.28657c0.30382,-0.12073 1.05297,-1.1998 1.05297,-2.64636l0,-1.27056c0,-2.92453 2.37881,-5.30334 5.30334,-5.30334l10.60447,0c2.92763,0 5.3029,2.37881 5.3029,5.30334l0,1.27056c0.00708,0.80267 2.23773,3.05897 3.40436,3.61841c0.81461,-0.01857 1.82955,-0.37812 2.60302,-1.14452l0.89111,-0.89067c1.99539,-1.99937 5.50323,-1.9976 7.49862,-0.00177l7.49906,7.49906c0.99416,0.99769 1.54651,2.3306 1.54651,3.74975s-0.55236,2.75162 -1.54651,3.74931l-0.89111,0.89111c-0.56562,0.56607 -0.60012,3.7356 -0.17247,4.95751c0.12383,0.30205 1.20157,1.04988 2.64415,1.04988l1.27763,0c2.92099,0 5.30334,2.37881 5.30334,5.3029l0,10.60801c0,2.92055 -2.38235,5.3029 -5.30334,5.3029l-1.27763,0c-0.8009,0.00708 -3.05853,2.23729 -3.61841,3.40392c-0.11764,0.29674 0.13135,1.58101 1.14629,2.59639l0.89111,0.89067a5.2945,5.2945 0 0 1 1.54651,3.74975c0,1.42269 -0.55236,2.75471 -1.54651,3.74975l-7.49906,7.50569c-1.99539,1.99583 -5.50323,1.99583 -7.49862,0l-0.89775,-0.8973c-0.11719,-0.11764 -0.82168,-0.45551 -2.47212,-0.45551c-1.13258,0 -2.14707,0.17247 -2.47831,0.28967c-0.29719,0.11764 -1.04988,1.19449 -1.04988,2.64459l0,1.27056c-0.00088,2.91923 -2.37615,5.30157 -5.30378,5.30157zm-19.5156,-13.75499c0.63859,0 1.22235,0.12427 1.73314,0.37281c1.10516,0.53157 5.41036,3.69447 5.41036,6.80872l0,1.27056a1.77117,1.77117 0 0 0 1.76763,1.76763l10.60447,0a1.77117,1.77117 0 0 0 1.76763,-1.76763l0,-1.27056c0,-2.72774 1.47045,-5.3029 3.41807,-5.9866c0.84954,-0.29011 2.27886,-0.48381 3.64583,-0.48381c2.31336,0 3.98458,0.5046 4.97166,1.49167l0.89775,0.89775c0.66248,0.66292 1.83618,0.66292 2.49954,0l7.49862,-7.50614c0.33124,-0.33124 0.51079,-0.77348 0.51079,-1.24977s-0.17955,-0.91809 -0.51079,-1.24977l-0.89111,-0.89067c-1.64336,-1.63629 -2.84493,-4.51615 -1.83618,-6.62873c0.53157,-1.10472 3.70111,-5.40727 6.80828,-5.40727l1.27763,0a1.77073,1.77073 0 0 0 1.76763,-1.76719l0,-10.60801a1.76984,1.76984 0 0 0 -1.76763,-1.76763l-1.27763,0c-2.73437,0 -5.3029,-1.47266 -5.9866,-3.42515c-0.39359,-1.14805 -1.18078,-6.42 1.01494,-8.61749l0.89111,-0.89111a1.75083,1.75083 0 0 0 0.51079,-1.24977a1.75083,1.75083 0 0 0 -0.51079,-1.24977l-7.49862,-7.49906c-0.66336,-0.65761 -1.83706,-0.66115 -2.49954,0.00177l-0.89111,0.89067c-1.87819,1.87996 -4.78503,2.7242 -6.62873,1.83176c-1.10472,-0.52627 -5.41346,-3.69049 -5.41346,-6.80474l0,-1.27056a1.77029,1.77029 0 0 0 -1.76763,-1.76807l-10.60491,0a1.76984,1.76984 0 0 0 -1.76763,1.76807l0,1.27056c0,2.72906 -1.47089,5.30157 -3.42161,5.98527c-0.83893,0.29321 -2.26825,0.48337 -3.64229,0.48337c-2.30982,0 -3.98414,-0.50238 -4.9752,-1.49344l-0.89067,-0.89067c-0.66292,-0.66292 -1.83662,-0.66292 -2.49954,0l-7.49906,7.50216a1.76719,1.76719 0 0 0 0,2.49954l0.88758,0.88758c1.92993,1.92817 2.71712,4.7784 1.83353,6.62873c-0.52494,1.10118 -3.68386,5.40992 -6.80519,5.40992l-1.27409,0a1.77029,1.77029 0 0 0 -1.76763,1.76763l0.00354,10.60801a1.77073,1.77073 0 0 0 1.76763,1.76719l1.27056,0c2.73083,0 5.30644,1.47089 5.9866,3.42515c0.41438,1.19449 1.21528,6.38683 -1.0114,8.61749l-0.89111,0.89067c-0.33124,0.33168 -0.51079,0.77348 -0.51079,1.24977s0.17955,0.91853 0.51079,1.24977l7.49906,7.49199c0.66292,0.66292 1.83662,0.66292 2.49954,0l0.89067,-0.89111c1.35679,-1.35237 3.23498,-2.20147 4.89559,-2.20147z"/>
   <path stroke="null" d="m212.25271,191.83728a1.76896,1.76896 0 0 1 -1.76763,-1.76763c0,-14.6231 11.89404,-26.51714 26.51582,-26.51714a1.76675,1.76675 0 0 1 1.76763,1.76763a1.76675,1.76675 0 0 1 -1.76763,1.76763c-12.67061,0 -22.98011,10.30949 -22.98011,22.98188a1.7694,1.7694 0 0 1 -1.76807,1.76763zm24.74774,24.74774a1.76896,1.76896 0 0 1 -1.76807,-1.76763a1.76454,1.76454 0 0 1 1.76807,-1.76763c12.66884,0 22.97834,-10.30949 22.97834,-22.98011a1.76675,1.76675 0 0 1 1.76763,-1.76763a1.76233,1.76233 0 0 1 1.76763,1.76763c0,14.61824 -11.89094,26.51537 -26.5136,26.51537z"/>
  </g>
 </g>

</svg>