<svg width="122.88" height="92.5" xmlns="http://www.w3.org/2000/svg" data-name="Layer 1">

 <title>information-technology</title>
 <g>
  <title>Layer 1</title>
  <path id="svg_1" fill-rule="evenodd" d="m2.6,86.05l11.47,0a2.14,2.14 0 0 1 -0.57,-1.5l0,-47a2.15,2.15 0 0 1 2.15,-2.15l90.1,0a2.16,2.16 0 0 1 2.15,2.15l0,47a2.19,2.19 0 0 1 -0.61,1.5l12,0a3.1,3.1 0 0 1 0,6.2l-116.69,0a3.1,3.1 0 0 1 0,-6.2zm85,-64.3l-6.1,0l0,9.56l-4.27,0l0,-11.7a2.13,2.13 0 0 1 2.14,-2.14l8.26,0a6.28,6.28 0 1 1 -0.06,4.28l0.03,0zm-44.1,1.5l0,8.06l-4.29,0l0,-5.92l-4.91,0a6.28,6.28 0 1 1 0,-4.29l7.1,0a2.12,2.12 0 0 1 1.51,0.63a2.15,2.15 0 0 1 0.59,1.52zm-10.94,-23.5a6.28,6.28 0 1 0 5.75,8.81l12.56,0l0,22.75l4.28,0l0,-24.88a2.13,2.13 0 0 0 -2.14,-2.15l-14.42,0a6.27,6.27 0 0 0 -6,-4.53l-0.03,0zm34.79,0.1a6.28,6.28 0 0 0 -2.14,12.19l0,19.27l4.29,0l0,-19.27a6.28,6.28 0 0 0 -2.15,-12.19zm-50.21,38.9l87.36,0l0,45.2l-87.36,0l0,-45.2zm40.26,48.83l7.1,0a1.21,1.21 0 0 1 1.18,1.17l0,0a1.21,1.21 0 0 1 -1.18,1.24l-7.1,0a1.21,1.21 0 0 1 -1.2,-1.24l0,0a1.2,1.2 0 0 1 1.2,-1.2l0,0.03z" class="cls-1"/>
  <g stroke="null">
   <g stroke="null">
    <title stroke="null">Layer 1</title>
    <g stroke="null">
     <title stroke="null">Layer 1</title>
     <g stroke="null" stroke-width="5">
      <path stroke="null" fill-rule="nonzero" d="m55.57008,41.07201c-1.9309,0.17347 -3.77576,0.6138 -5.53288,1.31967c-1.21251,0.49166 -2.34584,1.07078 -3.39425,1.73751a19.09528,18.5318 0 0 0 -2.92394,2.28569a19.08161,18.51854 0 0 0 -2.0119,2.23432l6.47698,0.06997c1.85219,-2.53947 4.31096,-5.08872 7.38598,-7.64718l0.00001,0.00001l0,0.00001l0,0zm3.93414,17.86247c-0.50223,-0.00542 -0.92805,-0.42772 -0.92254,-0.93809c0.00527,-0.4873 0.44012,-0.90031 0.94234,-0.89488l1.38648,0.01497c0.86043,0.03216 1.6243,0.20294 2.26545,0.60459c1.2431,0.78279 1.45373,1.88397 1.75965,3.1291l20.92278,0.22605c0.52579,0.00569 0.92805,0.42772 0.92279,0.91503c-0.001,0.09274 -0.02616,0.1852 -0.05083,0.27759l-2.54221,9.51165c-0.10007,0.41661 -0.48559,0.69107 -0.91593,0.68641l-15.3035,-0.16535c0.32175,1.21012 0.64962,1.86356 1.10026,2.17002c0.54619,0.35421 1.50257,0.38751 3.10506,0.38185l10.83187,0.11703c0.52579,0.00569 0.92796,0.42781 0.92269,0.91512c-0.00551,0.51037 -0.44012,0.9004 -0.94225,0.89497l-10.80781,-0.11677c-1.9849,0.00152 -3.20402,-0.05806 -4.17755,-0.69512c-0.99734,-0.66067 -1.51169,-1.78013 -2.01568,-3.80463l-3.07716,-11.80026c0.00025,-0.02297 0.00025,-0.02297 -0.02317,-0.04657c-0.13826,-0.51193 -0.37323,-0.86287 -0.70602,-1.05185c-0.33254,-0.21244 -0.78602,-0.31047 -1.31192,-0.31615l-1.36281,-0.01473l0.00001,0l0,-0.00001l0,0.00001zm18.39928,5.77888c0.00308,-0.2857 0.29691,-0.51425 0.65635,-0.51036c0.35895,0.00388 0.64786,0.23871 0.64477,0.52441l-0.03781,3.50008c-0.00309,0.28608 -0.29701,0.51472 -0.65595,0.51085c-0.35945,-0.00388 -0.64825,-0.23882 -0.64517,-0.5249l0.03781,-3.50008l0.00001,0l0,0zm-3.89514,-0.04209c0.00308,-0.2857 0.29701,-0.51425 0.65635,-0.51036c0.35895,0.00388 0.64786,0.23871 0.64477,0.52441l-0.03781,3.50008c-0.00309,0.28608 -0.29701,0.51472 -0.65595,0.51085c-0.35935,-0.00388 -0.64825,-0.23882 -0.64517,-0.5249l0.03781,-3.50008l0.00001,0l0,0zm-3.89514,-0.04209c0.00308,-0.2857 0.29701,-0.51425 0.65644,-0.51036c0.35935,0.00388 0.64776,0.23871 0.64467,0.52441l-0.03781,3.50008c-0.00309,0.28608 -0.29652,0.51472 -0.65585,0.51085c-0.35945,-0.00388 -0.64835,-0.23882 -0.64527,-0.5249l0.03781,-3.50008l0.00001,0zm9.61083,-1.80902l-0.00001,0.00096l-8.73573,-0.09438l0.00001,-0.00096l-5.546,-0.05993l2.04404,7.79683l15.08834,0.16302l2.06864,-7.75239l-4.9193,-0.05315l0.00001,-0.00001l0,0zm0.45314,14.99762c1.26735,0.01369 2.28459,1.02249 2.2713,2.25245c-0.01329,1.22995 -1.0521,2.21654 -2.31944,2.20284c-1.26735,-0.01369 -2.28459,-1.02249 -2.2713,-2.25245c0.01329,-1.22995 1.0521,-2.21654 2.31944,-2.20284zm-10.06674,-0.10876c1.26725,0.01369 2.28459,1.02249 2.2713,2.25245c-0.01329,1.22995 -1.0522,2.21654 -2.31944,2.20284c-1.26735,-0.01369 -2.28459,-1.02249 -2.2713,-2.25245c0.01329,-1.22995 1.0521,-2.21654 2.31944,-2.20284zm-7.23792,-1.41037c-1.00706,0.9457 -2.1043,1.88628 -3.29208,2.82118c1.41177,-0.13506 2.77724,-0.41296 4.09613,-0.8337a6.62195,6.42654 0 0 0 -0.21743,1.81161c-1.97062,0.54902 -4.02687,0.81196 -6.16689,0.78884c-1.4743,-0.01593 -2.90754,-0.16664 -4.29546,-0.45189a20.51641,19.91099 0 0 1 -3.99019,-1.24505l-0.04665,-0.01828c-1.28658,-0.55288 -2.4983,-1.20702 -3.63069,-1.96189a20.90357,20.28673 0 0 1 -3.13166,-2.55766a20.83307,20.21831 0 0 1 -2.56811,-3.09516c-0.75317,-1.11512 -1.40085,-2.30493 -1.943,-3.56511c-0.54589,-1.28002 -0.95099,-2.59455 -1.2138,-3.94359c-0.26377,-1.3528 -0.38814,-2.74666 -0.37267,-4.17795c0.01546,-1.4308 0.16992,-2.82213 0.46285,-4.16892a20.51066,19.90542 0 0 1 1.27992,-3.87119l0.01881,-0.04526c0.56925,-1.24826 1.24249,-2.42381 2.01957,-3.5223a20.83366,20.2189 0 0 1 2.63339,-3.03858a20.86643,20.2507 0 0 1 3.18719,-2.48987c1.14844,-0.73022 2.37399,-1.35803 3.6741,-1.88287c2.62454,-1.0547 5.41552,-1.56678 8.36552,-1.53492c1.4748,0.01593 2.90754,0.16674 4.29546,0.45189a20.54016,19.93405 0 0 1 3.99068,1.24516l0.04665,0.01828c1.28648,0.55278 2.49771,1.20643 3.63019,1.96178a20.88307,20.26684 0 0 1 3.13254,2.55862a20.89278,20.27626 0 0 1 2.56773,3.0943c0.75357,1.11502 1.40036,2.30483 1.94251,3.56511a20.64196,20.03285 0 0 1 1.32704,4.58115l-1.74829,-0.01889c-0.23921,-1.35253 -0.62746,-2.65939 -1.16584,-3.91962c-0.32713,-0.75789 -0.69075,-1.48341 -1.09198,-2.17607l-6.48569,-0.07007c1.22222,2.04678 2.06093,4.07961 2.5216,6.09854l-1.7676,-0.0191c-0.5095,-2.00909 -1.43219,-4.04234 -2.77153,-6.10125l-7.68265,-0.083l-0.02698,2.4974a5.26884,5.11336 0 0 0 -1.73065,0.67655l0.03449,-3.19256l-7.68265,-0.083c-2.00859,2.94557 -3.13573,5.85761 -3.39985,8.73582l8.72751,0.0943a5.29746,5.14114 0 0 0 0.78716,1.68109l-9.57086,-0.1034c0.07283,2.947 1.05718,5.88225 2.93148,8.80422l7.99961,0.08643l0.0801,-7.41376a5.24933,5.09444 0 0 0 1.71553,0.7233l-0.07248,6.70907l2.61868,0.02829l0.43683,1.67731l-3.07358,-0.03321l-0.07217,6.67918c1.48114,-1.14855 2.81746,-2.30193 4.00924,-3.46053c0.19843,0.60753 0.41919,1.16437 0.67892,1.68925l-0.00001,-0.00001l-0.00001,-0.00004l0,0zm-6.33915,-4.92652l-6.80127,-0.07348c1.71539,2.25864 3.96117,4.50937 6.72911,6.75267l0.07217,-6.67918l-0.00001,0zm-8.91673,-0.09634l-6.15329,-0.06648a19.12597,18.56159 0 0 0 1.95982,2.27388a19.16776,18.60214 0 0 0 2.8772,2.35174c1.03377,0.68922 2.15432,1.29269 3.35633,1.809l0.0404,0.01869a18.80168,18.24687 0 0 0 3.65406,1.13618a19.38461,18.8126 0 0 0 1.69159,0.272c-3.12812,-2.5731 -5.60754,-5.17099 -7.42611,-7.79501l0,0.00001l0,0zm-7.25068,-1.75092l6.17705,0.06674c-1.6911,-2.90212 -2.57713,-5.83542 -2.64016,-8.80107l-6.0713,-0.0656c0.03186,1.0291 0.14301,2.03464 0.33415,3.01442c0.24322,1.24627 0.61277,2.45039 1.10778,3.60952c0.32723,0.7578 0.69135,1.48381 1.09247,2.17598l0.00001,0l0.00001,0.00001l0,0zm-2.51633,-10.47232l6.10507,0.06596c0.24129,-2.90094 1.271,-5.81404 3.10418,-8.73901l-6.4853,-0.07006c-0.41599,0.68335 -0.79531,1.40133 -1.13776,2.15246l-0.01924,0.0391c-0.51168,1.13605 -0.90118,2.31879 -1.16776,3.54515c-0.21227,0.97581 -0.34511,1.97823 -0.3992,3.0064l0,0zm12.44843,-10.31054l6.47906,0.07l0.07139,-6.60807c-2.66055,2.19772 -4.84179,4.37677 -6.55045,6.53807zm8.2022,0.08861l6.47857,0.06999c-1.66206,-2.19723 -3.79473,-4.42386 -6.40718,-6.67806l-0.07139,6.60807zm8.59303,0.09284l6.47698,0.06997a19.15607,18.5908 0 0 0 -1.95982,-2.27397a19.13835,18.5736 0 0 0 -2.8773,-2.35164c-1.03367,-0.68922 -2.15373,-1.29268 -3.35584,-1.80909l-0.0403,-0.01869a18.82217,18.26676 0 0 0 -3.65466,-1.13609a19.43521,18.86171 0 0 0 -1.8081,-0.28546c3.01904,2.62429 5.42214,5.22608 7.21904,7.80498z"/>
     </g>
    </g>
   </g>
  </g>
 </g>
</svg>