<?xml version="1.0" encoding="utf-8"?>

<svg width="800px" height="800px" viewBox="0 0 1024 1024" fill="#000000" class="icon"  version="1.1" xmlns="http://www.w3.org/2000/svg"><path d="M615.922 967.676H408.078a7.982 7.982 0 0 1-5.652-2.344l-31.978-31.976a7.988 7.988 0 0 1-2.342-5.652v-111.92a7.988 7.988 0 0 1 7.994-7.994h271.798a7.998 7.998 0 0 1 7.994 7.994v111.92a7.992 7.992 0 0 1-2.342 5.652l-31.976 31.976a7.99 7.99 0 0 1-5.652 2.344z m-204.534-15.99h201.224l27.292-27.292v-100.616H384.094v100.616l27.294 27.292z" fill="" /><path d="M360.112 871.742a7.986 7.986 0 0 1-7.978-7.572 7.994 7.994 0 0 1 7.556-8.4l303.76-15.988c4.498-0.64 8.182 3.154 8.4 7.558 0.25 4.402-3.152 8.164-7.556 8.398l-303.76 15.988c-0.142 0.016-0.282 0.016-0.422 0.016zM360.112 919.708a7.994 7.994 0 0 1-0.422-15.972l303.76-15.99c4.498-0.514 8.182 3.156 8.4 7.558 0.25 4.402-3.152 8.166-7.556 8.4l-303.76 15.988c-0.142 0.016-0.282 0.016-0.422 0.016zM647.898 823.778H376.1a7.99 7.99 0 0 1-7.994-7.994v-49.558c-80.176-50.09-127.908-135.824-127.908-230.242 0-149.876 121.928-271.806 271.806-271.806 149.854 0 271.796 121.928 271.796 271.806 0 94.418-47.746 180.152-127.908 230.242v49.558a8 8 0 0 1-7.994 7.994z m-263.804-15.988h255.81V761.76c0-2.794 1.468-5.402 3.872-6.856 77.664-46.81 124.038-128.658 124.038-218.922 0-141.054-114.762-255.816-255.808-255.816-141.056 0-255.818 114.762-255.818 255.816 0 90.264 46.374 172.112 124.038 218.922a8.022 8.022 0 0 1 3.872 6.856v46.03zM512.004 999.652c-60.208 0-78.352-34.914-79.1-36.396a8 8 0 0 1 3.576-10.726 7.98 7.98 0 0 1 10.696 3.514c0.624 1.202 15.146 27.622 64.83 27.622 49.736 0 64.226-26.498 64.82-27.622 2.03-3.888 6.838-5.434 10.742-3.436s5.496 6.728 3.53 10.648c-0.752 1.482-18.894 36.396-79.094 36.396zM168.248 543.976H8.364a7.988 7.988 0 0 1-7.994-7.994 7.988 7.988 0 0 1 7.994-7.994h159.884a7.99 7.99 0 0 1 7.996 7.994 7.99 7.99 0 0 1-7.996 7.994zM1015.636 543.976h-159.886a7.98 7.98 0 0 1-7.994-7.994 7.98 7.98 0 0 1 7.994-7.994h159.886a8 8 0 0 1 7.994 7.994 7.998 7.998 0 0 1-7.994 7.994zM75.814 795.796a7.976 7.976 0 0 1-6.916-3.996 7.974 7.974 0 0 1 2.918-10.914l138.496-79.944c3.81-2.248 8.712-0.906 10.914 2.92a7.974 7.974 0 0 1-2.92 10.914l-138.494 79.942a7.916 7.916 0 0 1-3.998 1.078zM809.72 372.1a8.006 8.006 0 0 1-6.934-3.998 7.966 7.966 0 0 1 2.936-10.914l138.434-79.942a7.926 7.926 0 0 1 10.898 2.92 7.984 7.984 0 0 1-2.904 10.914l-138.434 79.942a8 8 0 0 1-3.996 1.078zM683.904 246.284a7.846 7.846 0 0 1-3.998-1.078 7.966 7.966 0 0 1-2.936-10.914l79.912-138.464a7.97 7.97 0 0 1 10.93-2.92 7.98 7.98 0 0 1 2.904 10.914l-79.912 138.464a7.952 7.952 0 0 1-6.9 3.998zM512.036 200.192a7.99 7.99 0 0 1-7.996-7.994l-0.032-159.856a7.99 7.99 0 0 1 7.996-7.994 7.99 7.99 0 0 1 7.994 7.994l0.032 159.856a7.99 7.99 0 0 1-7.994 7.994zM340.158 246.252a7.974 7.974 0 0 1-6.916-3.998l-79.944-138.432a7.974 7.974 0 0 1 2.92-10.914 7.966 7.966 0 0 1 10.914 2.92l79.944 138.432a7.974 7.974 0 0 1-2.92 10.914 7.936 7.936 0 0 1-3.998 1.078zM948.184 795.766a7.856 7.856 0 0 1-3.996-1.076l-138.464-79.944a7.966 7.966 0 0 1-2.936-10.914c2.188-3.826 7.122-5.136 10.93-2.92l138.464 79.944a7.982 7.982 0 0 1 2.904 10.914 7.956 7.956 0 0 1-6.902 3.996zM214.31 372.038a7.936 7.936 0 0 1-3.998-1.078L71.88 291.048a7.974 7.974 0 0 1-2.92-10.914 7.99 7.99 0 0 1 10.914-2.92l138.432 79.912a7.974 7.974 0 0 1 2.92 10.914 7.98 7.98 0 0 1-6.916 3.998z" fill="" /><path d="M511.988 695.87c-88.156 0-159.886-71.73-159.886-159.886 0-88.156 71.73-159.886 159.886-159.886 88.162 0 159.892 71.73 159.892 159.886 0 88.154-71.73 159.886-159.892 159.886z m0-303.784c-79.35 0-143.898 64.546-143.898 143.896s64.548 143.896 143.898 143.896c79.358 0 143.904-64.546 143.904-143.896s-64.546-143.896-143.904-143.896z" fill="" /><path d="M555.152 656.99c-1 0-1.998-0.046-3.06-0.14-6.996-0.594-16.332-5.058-20.766-22.982-2.156-8.652-2.81-17.3-3.474-25.67-0.672-8.776-1.31-17.066-3.544-25.108-3.076-11.118-9.82-12.18-26.934-12.18l-4.668-0.016c-24.234-0.266-40.488-16.3-41.408-40.862-0.968-26.386 9.572-41.236 18.58-49.042 14.084-12.194 30.822-13.678 35.38-12.896 20.534 3.624 30.408 6.012 34.716 8.4 5.964 3.31 11.368 2.514 14.866 1.296a17.184 17.184 0 0 0 4.964-2.702c-9.774-4.512-36.452-11.196-50.19-12.178-1.078-0.266-3.278 0.376-5.028 0.672-6.464 1.154-15.334 2.748-21.08-3.514-5.246-5.84-4.606-14.584 1.608-22.876 13.616-17.924 33.132-25.652 52.018-33.132 5.9-2.342 11.802-4.668 17.486-7.338a27.38 27.38 0 0 0 2.342-5.528l15.334 4.528c-0.156 0.468-3.436 11.506-8.494 14.334-6.996 3.404-13.896 6.136-20.798 8.884-17.604 6.964-34.232 13.552-45.116 27.886a12.56 12.56 0 0 0-1.156 1.794c1.656-0.172 3.702-0.532 5.028-0.764 3.168-0.562 6.12-1.124 9.024-0.906 0.61 0.046 63.228 7.556 66.664 24.388 1.154 5.902-2.124 12.24-8.744 17.066-7.994 5.808-22.36 9.852-36.474 2.078-1.436-0.782-7.142-2.67-29.048-6.512-2.404-0.266-14.818 1.218-24.342 10.492-8.228 8.026-12.118 19.784-11.554 34.976 0.594 16.02 9.93 25.292 25.608 25.464l4.48 0.016c15.098 0 35.764 0.016 42.352 23.906 2.624 9.524 3.374 18.984 4.06 28.134 0.624 8.072 1.218 15.694 3.06 23.062 0.782 3.17 2.998 10.586 6.622 10.898 8.586 0.702 14.458-4.31 22.702-13.866 2.092-2.452 4.374-4.792 6.652-7.136 4.34-4.434 8.432-8.618 11.054-13.378 2.966-5.45 4.184-11.82 5.434-18.55 1.498-8.026 3.06-16.316 7.712-24.342l1.624-2.78c8.962-15.41 13.428-24.264 15.49-29.322-19.674-0.468-31.51-8.978-36.224-17.504-3.342-6.042-3.374-12.334-0.094-16.816 6.372-8.65 18.174-5.512 28.604-2.716 4.06 1.078 11.554 3.108 13.71 2.374 0.404-8.978 17.956-16.27 24.856-17.16l2.062 15.864c-3.78 0.484-10.026 3.904-12.274 5.778-1.124 4.762-3.808 7.462-5.996 8.93-7.15 4.81-16.988 2.202-26.48-0.342-2.654-0.704-6.528-1.734-9.398-2.202 0.874 1.046 2.154 2.25 4.028 3.418 3.964 2.452 11.274 5.23 23.578 4.216 3.808-0.172 7.494 1.388 9.524 4.59 4.402 7.01 0.468 17.986-17.582 48.934l-1.592 2.748c-3.28 5.652-4.53 12.274-5.84 19.268-1.436 7.682-2.904 15.616-7.12 23.294-3.654 6.684-8.712 11.868-13.618 16.878-2.058 2.11-4.122 4.202-5.994 6.402-8.212 9.498-18.142 19.492-33.132 19.492zM406.032 649.434l-2.826-7.48-1.374-7.87 1.374 7.87-7.308-3.152c1.952-5.386 9.556-40.628-3.668-67.124-6.854-13.708-18.456-23.156-34.476-28.042l4.684-15.3c33.118 10.132 52.042 37.05 53.306 75.804 0.016 0.418 0.344 41.498-9.712 45.294zM296.142 543.976a7.988 7.988 0 0 1-7.994-7.994c0-123.428 100.414-223.84 223.84-223.84a7.99 7.99 0 0 1 7.994 7.994 7.99 7.99 0 0 1-7.994 7.994c-114.606 0-207.852 93.246-207.852 207.852a7.988 7.988 0 0 1-7.994 7.994z" fill="" /></svg>