<svg width="122.88" height="92.5" xmlns="http://www.w3.org/2000/svg" data-name="Layer 1">

 <title>information-technology</title>
 <g>
  <title>Layer 1</title>
  <path id="svg_1" fill-rule="evenodd" d="m2.6,86.05l11.47,0a2.14,2.14 0 0 1 -0.57,-1.5l0,-47a2.15,2.15 0 0 1 2.15,-2.15l90.1,0a2.16,2.16 0 0 1 2.15,2.15l0,47a2.19,2.19 0 0 1 -0.61,1.5l12,0a3.1,3.1 0 0 1 0,6.2l-116.69,0a3.1,3.1 0 0 1 0,-6.2zm85,-64.3l-6.1,0l0,9.56l-4.27,0l0,-11.7a2.13,2.13 0 0 1 2.14,-2.14l8.26,0a6.28,6.28 0 1 1 -0.06,4.28l0.03,0zm-44.1,1.5l0,8.06l-4.29,0l0,-5.92l-4.91,0a6.28,6.28 0 1 1 0,-4.29l7.1,0a2.12,2.12 0 0 1 1.51,0.63a2.15,2.15 0 0 1 0.59,1.52zm-10.94,-23.5a6.28,6.28 0 1 0 5.75,8.81l12.56,0l0,22.75l4.28,0l0,-24.88a2.13,2.13 0 0 0 -2.14,-2.15l-14.42,0a6.27,6.27 0 0 0 -6,-4.53l-0.03,0zm34.79,0.1a6.28,6.28 0 0 0 -2.14,12.19l0,19.27l4.29,0l0,-19.27a6.28,6.28 0 0 0 -2.15,-12.19zm-50.21,38.9l87.36,0l0,45.2l-87.36,0l0,-45.2zm40.26,48.83l7.1,0a1.21,1.21 0 0 1 1.18,1.17l0,0a1.21,1.21 0 0 1 -1.18,1.24l-7.1,0a1.21,1.21 0 0 1 -1.2,-1.24l0,0a1.2,1.2 0 0 1 1.2,-1.2l0,0.03z" class="cls-1"/>
  <g stroke="null">
   <g stroke="null">
    <path stroke="null" d="m77.89804,66.7391c0.05545,0 0.10743,0.00693 0.15942,0.01386c0.33963,-0.58916 0.64808,-1.20951 0.92533,-1.85758c0.00693,-0.01386 0.0104,-0.02426 0.01733,-0.03812c0.41934,-0.98771 0.73472,-2.01354 0.94612,-3.07749c0.16635,-0.82482 0.26685,-1.67044 0.30498,-2.53685l-4.98706,0c-0.09011,2.53338 -0.84562,5.02865 -2.25613,7.49272l4.89002,0l0,0.00347l0,0zm-33.0449,12.21639c0.00347,-0.87334 0.49905,-1.72589 1.30308,-2.67894l-4.66475,-2.94926c-0.29458,-0.12823 -0.28765,-0.30844 -0.11783,-0.51985l0.98771,-0.84215c0.18021,-0.1109 0.37082,-0.15942 0.5753,-0.1005l5.7599,0.97385l3.74636,-4.14491l-11.19749,-7.58283c-0.28418,-0.16635 -0.30844,-0.3535 -0.01733,-0.57183l1.61499,-1.28922l14.60422,4.10332l4.31472,-4.61277c1.44864,-1.2511 2.85222,-1.81253 3.9335,-1.54568c0.59609,0.14556 0.80403,0.32577 0.98771,0.88374c0.35696,1.09514 -0.19754,2.56458 -1.50755,4.07906l-4.6093,4.31126l4.10332,14.60422l-1.28922,1.61499c-0.21834,0.29111 -0.40548,0.26685 -0.57183,-0.01386l-7.58283,-11.20096l-4.14491,3.74636l0.97385,5.7599c0.05545,0.20447 0.0104,0.39508 -0.1005,0.5753l-0.84215,0.98771c-0.2114,0.16982 -0.39162,0.17675 -0.51985,-0.11783l-2.94926,-4.66475c-0.95998,0.80749 -1.81253,1.30308 -2.68587,1.30308c-0.08664,-0.00347 -0.10397,-0.03119 -0.10397,-0.10743l0,0l0,0zm32.17502,-10.62566l-5.02518,0c-1.37586,1.99274 -3.18146,3.96469 -5.41333,5.91239l-0.47826,-1.69816c1.54568,-1.40012 2.85569,-2.8037 3.9335,-4.21422l-5.11875,0l-0.26339,-0.93572l0.70006,-0.65501l5.79455,0c1.5734,-2.47793 2.41902,-4.97666 2.51952,-7.49272l-3.03937,0c0.07971,-0.53717 0.09011,-1.07088 0.02773,-1.59073l2.97699,0c-0.20794,-2.46061 -1.1194,-4.95587 -2.75172,-7.49272l-6.38025,0l0,0l0,3.13987c-0.49559,0.08318 -0.99117,0.22527 -1.49023,0.41934c-0.03466,0.01386 -0.06585,0.02773 -0.1005,0.04159l0,-3.59734l-6.38025,0c-1.63232,2.53338 -2.54378,5.03211 -2.75172,7.49272l4.22808,0l-1.48676,1.59073l-0.02079,0l-5.65939,-1.59073l1.3516,0c0.18368,-2.4814 1.0085,-4.97666 2.4814,-7.49272l-5.3163,0c-0.33617,0.58569 -0.64114,1.19911 -0.9184,1.84026c-0.00693,0.01386 -0.0104,0.02426 -0.01733,0.03812c-0.41934,0.98771 -0.73472,2.01354 -0.94612,3.07749c-0.1005,0.50252 -0.17675,1.0085 -0.2322,1.52488l-1.55261,-0.43667c0.05545,-0.47133 0.13169,-0.93919 0.2218,-1.40012c0.2322,-1.16099 0.58223,-2.29079 1.04662,-3.3894c0.00693,-0.01386 0.0104,-0.02773 0.01733,-0.04505c0.47133,-1.09514 1.0293,-2.12444 1.67737,-3.09135c0.64808,-0.96345 1.38279,-1.85758 2.20415,-2.67548c0.81789,-0.82136 1.71203,-1.55607 2.67548,-2.20415c0.96691,-0.64808 1.99968,-1.20951 3.09135,-1.67737l0,0l0.00347,0c1.10901,-0.47479 2.25267,-0.82829 3.42752,-1.06395l0,0c1.18872,-0.23566 2.40169,-0.3535 3.65279,-0.3535c1.24763,0 2.46407,0.11783 3.64239,0.3535c1.16099,0.2322 2.29079,0.58223 3.3894,1.04662c0.01386,0.00693 0.03119,0.0104 0.04505,0.01733c1.09514,0.47133 2.12444,1.0293 3.09135,1.67737c0.96691,0.64808 1.85758,1.38279 2.67548,2.20415c0.82482,0.81789 1.55607,1.71203 2.20415,2.67548c0.64808,0.96691 1.20951,1.99968 1.67737,3.09135l0,0l0,0.00347c0.47479,1.10901 0.82829,2.25267 1.06395,3.42752c0.23566,1.17832 0.3535,2.39476 0.3535,3.64239c0,1.24763 -0.11783,2.46407 -0.3535,3.64239c-0.2322,1.16099 -0.58223,2.29079 -1.04662,3.38593c-0.00347,0.01386 -0.0104,0.02773 -0.01733,0.04505c-0.47133,1.09514 -1.0293,2.12444 -1.67737,3.09135c-0.64808,0.96345 -1.37933,1.85758 -2.20415,2.67548c-0.82136,0.82136 -1.71203,1.55607 -2.67548,2.20415c-0.96691,0.64808 -1.99968,1.20951 -3.09135,1.67737l0,0l-0.00347,0c-1.10901,0.47479 -2.25267,0.82829 -3.42752,1.06395c-0.06585,0.01386 -0.13169,0.02426 -0.19408,0.03812l-0.43321,-1.53528c0.10397,-0.01733 0.2114,-0.03812 0.31537,-0.05892c1.07781,-0.21487 2.11751,-0.53717 3.11561,-0.96345l0,0c1.01543,-0.43667 1.96155,-0.94959 2.83836,-1.53528c0.87681,-0.58916 1.68777,-1.25803 2.43635,-2.00661l0.00347,-0.00347l0,0c0.57183,-0.57183 1.10207,-1.18525 1.5838,-1.84026l0,0l0,0zm-26.62653,-19.75416l5.2955,0c1.50755,-2.17296 3.50376,-4.35978 5.9921,-6.56046c-0.44014,0.05198 -0.87681,0.1213 -1.31001,0.20794c-1.07781,0.21487 -2.11404,0.53717 -3.11561,0.96345l0,0c-1.01543,0.43667 -1.96155,0.94959 -2.83836,1.53528c-0.87681,0.58916 -1.68777,1.25803 -2.43635,2.00661l-0.00347,0.00347l0,0c-0.57183,0.5753 -1.10207,1.19218 -1.5838,1.84372l0,0l0,0zm15.33547,-6.56046c2.48833,2.20068 4.48454,4.38404 5.9921,6.56046l5.29897,0c-0.48172,-0.65154 -1.01197,-1.26843 -1.58726,-1.84372l-0.00347,-0.00347l0,0c-0.74511,-0.74858 -1.55954,-1.41745 -2.43635,-2.00661c-0.87681,-0.58569 -1.82293,-1.09861 -2.83836,-1.53528c-0.01386,-0.00693 -0.02426,-0.0104 -0.03812,-0.01733c-0.98771,-0.41934 -2.01354,-0.73472 -3.07749,-0.94612c-0.42974,-0.08664 -0.86641,-0.15595 -1.31001,-0.20794l0,0l0,0zm12.32382,8.15119l-5.31283,0c1.47636,2.51259 2.29772,5.01132 2.4814,7.49272l5.01825,0c-0.03812,-0.86641 -0.14209,-1.71203 -0.30498,-2.53685c-0.21487,-1.07781 -0.53717,-2.11404 -0.96345,-3.11561l0,0c-0.27725,-0.64114 -0.57876,-1.25456 -0.9184,-1.84026l0,0l0,0zm-13.55066,-7.11843l0,5.5277l5.26431,0c-1.38279,-1.82293 -3.13641,-3.66665 -5.26431,-5.5277l0,0l0,0zm-1.59073,5.5277l0,-5.5277c-2.1279,1.86105 -3.88152,3.70477 -5.26431,5.5277l5.26431,0l0,0l0,0z"/>
   </g>
  </g>
 </g>
</svg>